<svg xmlns="http://www.w3.org/2000/svg" xmlns:xlink="http://www.w3.org/1999/xlink" id="Capa_1" x="0px" y="0px" viewBox="0 0 1080 328.49" style="enable-background:new 0 0 1080 328.49;" xml:space="preserve"><style type="text/css">	.st0{fill:#007ED0;}	.st1{fill:url(#SVGID_1_);}	.st2{fill:#00B7F5;}	.st3{fill:url(#SVGID_2_);}	.st4{fill:#FFFFFF;}</style><g>	<g>		<path class="st0" d="M130,66.2c-1-1-2.24-1.51-3.67-1.51H16.61c-1.43,0-2.65,0.51-3.65,1.51c-1,1-1.51,2.24-1.51,3.67v147.71    c0,1.43,0.51,2.67,1.51,3.67c1,1,2.22,1.51,3.65,1.51h32.45c1.41,0,2.63-0.51,3.63-1.51c1.02-1,1.51-2.24,1.51-3.67v-47.72    c0-1.43,0.51-2.67,1.51-3.67c1-1,2.24-1.51,3.67-1.51h58.31c1.43,0,2.67-0.51,3.67-1.51c0.18-0.18,0.33-0.35,0.47-0.55    c0.69-0.88,1.04-1.94,1.04-3.12v-30.23c0-1.43-0.51-2.67-1.51-3.67c-1-1-2.24-1.51-3.67-1.51H59.39c-1.43,0-2.67-0.49-3.67-1.49    c-1-1-1.51-2.22-1.51-3.63v-8.97c0-1.43,0.51-2.63,1.51-3.63c1-1,2.24-1.49,3.67-1.49h66.94c1.43,0,2.67-0.51,3.67-1.53    c1-1,1.51-2.24,1.51-3.69V69.89C131.51,68.46,131,67.22,130,66.2z"></path>		<path class="st0" d="M184.64,66.42c-1-1-2.22-1.51-3.65-1.51h-32.43c-1.59,0-2.83,0.51-3.77,1.51c-0.92,1-1.39,2.24-1.39,3.67    v147.49c0,1.43,0.47,2.67,1.39,3.67c0.94,1,2.18,1.51,3.77,1.51h32.43c1.43,0,2.65-0.51,3.65-1.51c1-1,1.51-2.24,1.51-3.67V70.09    C186.15,68.66,185.64,67.42,184.64,66.42z"></path>		<path class="st0" d="M330.52,162.51c-0.96-2.79-2.12-5.32-3.51-7.6c-0.39-0.65-0.8-1.3-1.24-1.9c-1.94-2.73-4.08-5.05-6.38-6.91    c-2.3-1.86-4.61-3.46-6.91-4.75c-2.89-1.43-3.02-3.1-0.43-4.97c3.75-2.73,7.24-6.48,10.48-11.23c3.24-4.75,4.85-10.37,4.85-16.84    c0-8.07-1.47-14.86-4.42-20.42c-2.96-5.54-6.85-10.03-11.66-13.49c-4.83-3.46-10.4-5.95-16.75-7.46    c-6.34-1.51-12.96-2.26-19.87-2.26h-65.22c-1.43,0-2.67,0.51-3.67,1.51c-1,1-1.51,2.24-1.51,3.67v147.71    c0,1.43,0.51,2.67,1.51,3.67c1,1,2.24,1.51,3.67,1.51h68.46c7.2,0,14.08-0.77,20.63-2.28c6.54-1.51,12.33-4.1,17.37-7.77    c5.05-3.67,9.03-8.56,11.99-14.68c2.94-6.11,4.42-13.84,4.42-23.2C332.34,170.21,331.74,166.11,330.52,162.51z M247.04,109.61    c0-1.43,0.51-2.67,1.51-3.67c1-1,2.24-1.51,3.67-1.51h20.52c1.87,0,3.85,0.94,5.95,2.81c2.08,1.87,3.12,4.1,3.12,6.69    c0,2.73-0.86,5.22-2.59,7.44c-1.73,2.24-4.02,3.36-6.91,3.36h-20.08c-1.43,0-2.67-0.51-3.67-1.51c-1-1-1.51-2.24-1.51-3.67V109.61    z M283.76,179.79c-2.3,2.16-4.75,3.24-7.34,3.24h-24.19c-1.43,0-2.67-0.51-3.67-1.51c-1-1-1.51-2.24-1.51-3.67v-12.31    c0-1.43,0.51-2.67,1.51-3.67c1-1,2.24-1.51,3.67-1.51h22.67c3.75,0,6.73,1.33,8.97,3.99c2.22,2.67,3.34,5.3,3.34,7.89    C287.21,175.12,286.05,177.63,283.76,179.79z"></path>		<path class="st0" d="M483.72,216.93c-4.75-6.34-10.15-13.31-16.2-20.95c-6.05-7.64-11.8-15.04-17.28-22.24    c-0.86-1.16-1.12-2.34-0.77-3.57c0.37-1.22,1.12-2.26,2.28-3.12c3.46-2.16,6.56-4.87,9.29-8.11c2.73-3.24,5.1-6.87,7.13-10.9    c0.04-0.08,0.08-0.16,0.12-0.24c1.96-3.95,3.46-8.17,4.52-12.62c1.08-4.53,1.63-9.09,1.63-13.7c0-8.34-1.41-15.98-4.22-22.89    c-2.81-6.91-6.69-12.88-11.64-17.92c-4.99-5.05-10.99-8.97-18.04-11.78c-7.05-2.81-14.76-4.2-23.11-4.2h-67.16    c-1.43,0-2.67,0.51-3.67,1.51c-1,1-1.51,2.24-1.51,3.67v147.71c0,1.43,0.51,2.67,1.51,3.67c1.02,1,2.26,1.51,3.69,1.51h32.35    c1.43,0,2.67-0.51,3.67-1.51c1.02-1,1.53-2.24,1.53-3.67V182.6c0-1.43,0.49-2.67,1.51-3.67c1-1,2.22-1.51,3.65-1.51h4.71    c1.43,0,2.94,0.39,4.52,1.18c1.59,0.8,2.81,1.77,3.65,2.93c4.46,6.34,8.93,12.6,13.45,18.79c4.52,6.18,9.05,12.31,13.64,18.36    c0.86,1.16,2.12,2.12,3.77,2.91c1.67,0.8,3.2,1.2,4.65,1.2h40.17c1.43,0,2.38-0.69,2.81-2.06    C484.8,219.35,484.59,218.09,483.72,216.93z M387.84,109.61c0-1.43,0.49-2.67,1.51-3.67c1-1,2.22-1.51,3.65-1.51h22.77    c3,0,5.56,0.61,7.64,1.83c2.06,1.24,3.71,2.75,4.93,4.53c1.22,1.81,2.08,3.67,2.59,5.61c0.49,1.94,0.75,3.65,0.75,5.08    c0,2.73-0.51,5.1-1.51,7.13c-1,2.02-2.3,3.71-3.87,5.06c-1.57,1.37-3.3,2.38-5.14,3.02c-1.86,0.65-3.67,0.98-5.38,0.98h-22.77    c-1.43,0-2.65-0.51-3.65-1.51c-1.02-1-1.51-2.24-1.51-3.67V109.61z"></path>		<path class="st0" d="M645.94,138.47c-0.55-9.29-2.67-18.12-6.3-26.48c-4.32-9.93-10.19-18.61-17.61-26.03    c-7.4-7.4-16.08-13.27-26.01-17.59c-9.93-4.32-20.52-6.48-31.74-6.48c-11.23,0-21.81,2.16-31.74,6.48    c-9.93,4.32-18.57,10.19-25.91,17.59c-7.34,7.42-13.17,16.1-17.49,26.03c-4.32,9.93-6.48,20.51-6.48,31.74    c0,1.12,0.02,2.24,0.06,3.34c0.39,9.99,2.53,19.45,6.42,28.41c4.32,9.93,10.15,18.61,17.49,26.01    c7.34,7.42,15.98,13.29,25.91,17.61c9.93,4.32,20.51,6.48,31.74,6.48c11.23,0,21.81-2.16,31.74-6.48    c9.93-4.32,18.61-10.19,26.01-17.61c7.42-7.4,13.29-16.08,17.61-26.01s6.48-20.52,6.48-31.74    C646.12,141.96,646.06,140.19,645.94,138.47z M600.33,159.27c-2.02,4.89-4.83,9.21-8.42,12.96c-3.61,3.75-7.77,6.73-12.52,8.95    c-4.75,2.24-9.8,3.36-15.12,3.36c-5.34,0-10.37-1.12-15.12-3.36c-4.75-2.22-8.89-5.2-12.43-8.95c-3.53-3.75-6.3-8.07-8.3-12.96    c-1.88-4.57-2.89-9.4-3-14.49c-0.02-0.35-0.02-0.71-0.02-1.06c0-5.32,1-10.48,3.02-15.45c2-4.97,4.77-9.29,8.3-12.96    c3.53-3.67,7.68-6.62,12.43-8.85c4.75-2.22,9.78-3.34,15.12-3.34c5.32,0,10.37,1.12,15.12,3.34c4.75,2.24,8.91,5.18,12.52,8.85    c3.59,3.67,6.4,7.99,8.42,12.96c1.61,4,2.59,8.15,2.91,12.39c0.08,1.02,0.12,2.04,0.12,3.06    C603.36,149.2,602.34,154.39,600.33,159.27z"></path>		<path class="st0" d="M773.96,184.54c-1.02-1-2.24-1.51-3.67-1.51h-65c-1.59,0-2.85-0.51-3.79-1.51c-0.94-1-1.39-2.24-1.39-3.67    V69.87c0-1.43-0.51-2.67-1.51-3.67c-1.02-1-2.24-1.51-3.67-1.51h-32.39c-1.59,0-2.85,0.51-3.79,1.51c-0.94,1-1.39,2.24-1.39,3.67    v147.71c0,1.43,0.45,2.67,1.39,3.67c0.94,1,2.2,1.51,3.79,1.51h107.76c0.47,0,0.94-0.06,1.37-0.18c0.84-0.22,1.61-0.67,2.3-1.33    c1-1,1.51-2.24,1.51-3.67v-29.37C775.47,186.78,774.96,185.54,773.96,184.54z"></path>		<path class="st0" d="M938.94,216.5l-38.14-88.79l-24.93-58.05c-0.57-1.3-1.55-2.41-2.91-3.36c-1.37-0.92-2.77-1.39-4.2-1.39    h-30.25c-1.57,0-3.04,0.47-4.42,1.39c-1.37,0.94-2.34,2.06-2.93,3.36l-26.33,61.45l-29.37,68.57l-6.93,16.18    c-0.57,1.16-0.79,2.16-0.65,3.02c0.16,0.86,0.47,1.59,0.98,2.16c0.51,0.57,1.16,1,1.94,1.3c0.27,0.1,0.57,0.2,0.84,0.26    c0.49,0.12,0.96,0.18,1.41,0.18h37.14c1.45,0,2.85-0.47,4.22-1.41c1.37-0.92,2.34-2.04,2.93-3.34l6.05-12.96    c0.57-1.3,1.53-2.41,2.91-3.36c1.37-0.92,2.85-1.39,4.44-1.39h45.55c1.45,0,2.85,0.47,4.22,1.39c1.37,0.94,2.41,2.06,3.14,3.36    l5.83,12.96c0.71,1.3,1.75,2.41,3.12,3.34c1.37,0.94,2.85,1.41,4.44,1.41h36.91c2.32,0,3.87-0.73,4.65-2.16    C939.39,219.17,939.51,217.8,938.94,216.5z M866.26,162.18c-0.65,0.94-1.69,1.41-3.12,1.41H843.9c-1.57,0-2.65-0.47-3.24-1.41    c-0.57-0.92-0.57-2.04,0-3.34l10.8-26.13c0.59-1.3,1.24-1.94,1.94-1.94c0.73,0,1.37,0.65,1.94,1.94    c1.75,4.18,3.61,8.68,5.61,13.49c2.02,4.83,3.75,9.05,5.18,12.64C866.87,160.14,866.91,161.26,866.26,162.18z"></path>		<path class="st0" d="M1069.47,162.51c-1.24-3.59-2.81-6.77-4.75-9.5c-1.94-2.73-4.06-5.05-6.38-6.91    c-2.3-1.86-4.59-3.46-6.91-4.75c-2.87-1.43-3.02-3.1-0.43-4.97c3.75-2.73,7.24-6.48,10.48-11.23c0.08-0.12,0.16-0.24,0.22-0.35    c3.1-4.67,4.63-10.17,4.63-16.49c0-8.07-1.47-14.86-4.42-20.42c-2.96-5.54-6.83-10.03-11.66-13.49s-10.4-5.95-16.75-7.46    c-6.32-1.51-12.96-2.26-19.87-2.26h-65.22c-1.43,0-2.65,0.51-3.67,1.51c-1,1-1.51,2.24-1.51,3.67v147.71    c0,1.43,0.51,2.67,1.51,3.67c1.02,1,2.24,1.51,3.67,1.51h68.46c7.2,0,14.08-0.77,20.63-2.28c6.54-1.51,12.35-4.1,17.37-7.77    c5.05-3.67,9.05-8.56,11.99-14.68c2.94-6.11,4.42-13.84,4.42-23.2C1071.3,170.21,1070.69,166.11,1069.47,162.51z M986,109.61    c0-1.43,0.51-2.67,1.51-3.67c1-1,2.24-1.51,3.67-1.51h20.51c1.87,0,3.85,0.94,5.95,2.81c2.08,1.87,3.12,4.1,3.12,6.69    c0,2.73-0.86,5.22-2.59,7.44c-1.73,2.24-4.02,3.36-6.91,3.36h-20.08c-1.43,0-2.67-0.51-3.67-1.51c-1-1-1.51-2.24-1.51-3.67V109.61    z M1022.71,179.79c-2.3,2.16-4.75,3.24-7.34,3.24h-24.19c-1.43,0-2.67-0.51-3.67-1.51c-1-1-1.51-2.24-1.51-3.67v-12.31    c0-1.43,0.51-2.67,1.51-3.67c1-1,2.24-1.51,3.67-1.51h22.67c3.75,0,6.73,1.33,8.97,3.99c2.22,2.67,3.34,5.3,3.34,7.89    C1026.16,175.12,1025.01,177.63,1022.71,179.79z"></path>	</g>	<radialGradient id="SVGID_1_" cx="171.0913" cy="25.5445" r="55.4672" gradientUnits="userSpaceOnUse">		<stop offset="0" style="stop-color:#FFECA6"></stop>		<stop offset="0.5754" style="stop-color:#FFBD00"></stop>	</radialGradient>	<circle class="st1" cx="164.77" cy="30.63" r="22.28"></circle>	<path class="st2" d="M130,66.2c1,1.02,1.51,2.26,1.51,3.69v29.74c0,1.45-0.51,2.69-1.51,3.69c-1,1.02-2.24,1.53-3.67,1.53H59.39   c-1.43,0-2.67,0.49-3.67,1.49c-1,1-1.51,2.2-1.51,3.63v8.97c0,1.41,0.51,2.63,1.51,3.63c1,1,2.24,1.49,3.67,1.49h58.31   c1.43,0,2.67,0.51,3.67,1.51c1,1,1.51,2.24,1.51,3.67v30.23c0,1.18-0.35,2.24-1.04,3.12c-36.79,0.96-73.6,1.65-110.39,1.98V69.87   c0-1.43,0.51-2.67,1.51-3.67c1-1,2.22-1.51,3.65-1.51h109.72C127.76,64.69,129,65.2,130,66.2z"></path>	<path class="st2" d="M184.64,66.42c1,1,1.51,2.24,1.51,3.67v90.58c-14.25,0.49-28.51,0.94-42.76,1.35V70.09   c0-1.43,0.47-2.67,1.39-3.67c0.94-1,2.18-1.51,3.77-1.51h32.43C182.42,64.91,183.64,65.42,184.64,66.42z"></path>	<path class="st2" d="M319.39,146.1c-2.3-1.86-4.61-3.46-6.91-4.75c-2.89-1.43-3.02-3.1-0.43-4.97c3.75-2.73,7.24-6.48,10.48-11.23   c3.24-4.75,4.85-10.37,4.85-16.84c0-8.07-1.47-14.86-4.42-20.42c-2.96-5.54-6.85-10.03-11.66-13.49   c-4.83-3.46-10.4-5.95-16.75-7.46c-6.34-1.51-12.96-2.26-19.87-2.26h-65.22c-1.43,0-2.67,0.51-3.67,1.51c-1,1-1.51,2.24-1.51,3.67   v90.17c40.91-1.47,81.8-3.22,122.72-5.12c-0.39-0.65-0.8-1.3-1.24-1.9C323.82,150.28,321.68,147.97,319.39,146.1z M279.22,121.37   c-1.73,2.24-4.02,3.36-6.91,3.36h-20.08c-1.43,0-2.67-0.51-3.67-1.51c-1-1-1.51-2.24-1.51-3.67v-9.93c0-1.43,0.51-2.67,1.51-3.67   c1-1,2.24-1.51,3.67-1.51h20.52c1.87,0,3.85,0.94,5.95,2.81c2.08,1.87,3.12,4.1,3.12,6.69   C281.81,116.65,280.95,119.15,279.22,121.37z"></path>	<path class="st2" d="M470.22,98.59c-2.81-6.91-6.69-12.88-11.64-17.92c-4.99-5.05-10.99-8.97-18.04-11.78   c-7.05-2.81-14.76-4.2-23.11-4.2h-67.16c-1.43,0-2.67,0.51-3.67,1.51c-1,1-1.51,2.24-1.51,3.67v84.18   c41.07-1.96,82.14-4.06,123.21-6.24c1.96-3.95,3.46-8.17,4.52-12.62c1.08-4.53,1.63-9.09,1.63-13.7   C474.44,113.14,473.02,105.5,470.22,98.59z M430.17,128.61c-1,2.02-2.3,3.71-3.87,5.06c-1.57,1.37-3.3,2.38-5.14,3.02   c-1.86,0.65-3.67,0.98-5.38,0.98h-22.77c-1.43,0-2.65-0.51-3.65-1.51c-1.02-1-1.51-2.24-1.51-3.67v-22.89   c0-1.43,0.49-2.67,1.51-3.67c1-1,2.22-1.51,3.65-1.51h22.77c3,0,5.56,0.61,7.64,1.83c2.06,1.24,3.71,2.75,4.93,4.53   c1.22,1.81,2.08,3.67,2.59,5.61c0.49,1.94,0.75,3.65,0.75,5.08C431.68,124.21,431.17,126.59,430.17,128.61z"></path>	<path class="st2" d="M645.94,138.47c-14.23,0.71-28.47,1.45-42.7,2.2c-0.31-4.24-1.3-8.38-2.91-12.39   c-2.02-4.97-4.83-9.29-8.42-12.96c-3.61-3.67-7.77-6.62-12.52-8.85c-4.75-2.22-9.8-3.34-15.12-3.34c-5.34,0-10.37,1.12-15.12,3.34   c-4.75,2.24-8.89,5.18-12.43,8.85c-3.53,3.67-6.3,7.99-8.3,12.96c-2.02,4.97-3.02,10.13-3.02,15.45c0,0.35,0,0.71,0.02,1.06   c-14.25,0.75-28.49,1.51-42.72,2.28c-0.04-1.1-0.06-2.22-0.06-3.34c0-11.23,2.16-21.81,6.48-31.74   c4.32-9.93,10.15-18.61,17.49-26.03c7.34-7.4,15.98-13.27,25.91-17.59c9.93-4.32,20.51-6.48,31.74-6.48   c11.23,0,21.81,2.16,31.74,6.48c9.93,4.32,18.61,10.19,26.01,17.59c7.42,7.42,13.29,16.1,17.61,26.03   C643.27,120.34,645.39,129.18,645.94,138.47z"></path>	<path class="st2" d="M698.59,66.2c1,1,1.51,2.24,1.51,3.67v65.9c-14.25,0.69-28.51,1.37-42.76,2.1v-68c0-1.43,0.45-2.67,1.39-3.67   c0.94-1,2.2-1.51,3.79-1.51h32.39C696.35,64.69,697.57,65.2,698.59,66.2z"></path>	<path class="st2" d="M875.86,69.66l24.93,58.05c-31.98,0.96-63.98,2.1-95.96,3.4l26.33-61.45c0.59-1.3,1.55-2.41,2.93-3.36   c1.37-0.92,2.85-1.39,4.42-1.39h30.25c1.43,0,2.83,0.47,4.2,1.39C874.31,67.24,875.29,68.36,875.86,69.66z"></path>	<path class="st2" d="M1061.91,87.89c-2.96-5.54-6.83-10.03-11.66-13.49s-10.4-5.95-16.75-7.46c-6.32-1.51-12.96-2.26-19.87-2.26   h-65.22c-1.43,0-2.65,0.51-3.67,1.51c-1,1-1.51,2.24-1.51,3.67v56.72c39.48-0.96,78.96-1.59,118.46-1.79   c3.1-4.67,4.63-10.17,4.63-16.49C1066.33,100.24,1064.86,93.45,1061.91,87.89z M1018.17,121.37c-1.73,2.24-4.02,3.36-6.91,3.36   h-20.08c-1.43,0-2.67-0.51-3.67-1.51c-1-1-1.51-2.24-1.51-3.67v-9.93c0-1.43,0.51-2.67,1.51-3.67c1-1,2.24-1.51,3.67-1.51h20.51   c1.87,0,3.85,0.94,5.95,2.81c2.08,1.87,3.12,4.1,3.12,6.69C1020.76,116.65,1019.9,119.15,1018.17,121.37z"></path>	<linearGradient id="SVGID_2_" gradientUnits="userSpaceOnUse" x1="11.4465" y1="280.8115" x2="1066.3296" y2="280.8115">		<stop offset="0" style="stop-color:#00B7F5"></stop>		<stop offset="1" style="stop-color:#007ED0"></stop>	</linearGradient>	<path class="st3" d="M1061.33,310.4H11.45v-54.17c0-2.76,2.24-5,5-5h1049.88v54.17C1066.33,308.16,1064.09,310.4,1061.33,310.4z"></path>	<g>		<path class="st4" d="M78.8,276.23v1.49c0,0.24,0.08,0.44,0.25,0.6c0.17,0.16,0.37,0.25,0.61,0.25h9.68c0.24,0,0.44,0.08,0.61,0.25    c0.17,0.17,0.25,0.37,0.25,0.61v5.02c0,0.24-0.08,0.44-0.25,0.61c-0.17,0.17-0.37,0.25-0.61,0.25h-9.68    c-0.24,0-0.44,0.08-0.61,0.25c-0.17,0.17-0.25,0.37-0.25,0.61v7.92c0,0.24-0.08,0.44-0.25,0.61c-0.17,0.17-0.37,0.25-0.61,0.25    h-5.38c-0.24,0-0.44-0.08-0.61-0.25c-0.17-0.17-0.25-0.37-0.25-0.61v-24.51c0-0.24,0.08-0.44,0.25-0.61    c0.17-0.17,0.37-0.25,0.61-0.25h18.21c0.24,0,0.44,0.09,0.61,0.25c0.17,0.17,0.25,0.37,0.25,0.61v4.94c0,0.24-0.08,0.45-0.25,0.61    c-0.17,0.17-0.37,0.25-0.61,0.25H79.66c-0.24,0-0.44,0.08-0.61,0.25C78.88,275.79,78.8,275.99,78.8,276.23z"></path>		<path class="st4" d="M98.26,269.54c0.09-0.21,0.26-0.4,0.48-0.55c0.23-0.16,0.47-0.23,0.73-0.23h5.02c0.24,0,0.47,0.08,0.7,0.23    c0.23,0.16,0.39,0.34,0.48,0.55l10.46,24.37c0.09,0.21,0.08,0.44-0.05,0.68c-0.13,0.24-0.39,0.36-0.77,0.36h-6.13    c-0.26,0-0.51-0.08-0.73-0.23c-0.23-0.16-0.4-0.34-0.52-0.56l-0.97-2.15c-0.12-0.21-0.29-0.4-0.52-0.55    c-0.23-0.16-0.46-0.23-0.7-0.23h-7.56c-0.26,0-0.51,0.08-0.73,0.23c-0.23,0.15-0.39,0.34-0.48,0.55l-1,2.15    c-0.1,0.21-0.26,0.4-0.48,0.56c-0.23,0.15-0.46,0.23-0.7,0.23h-6.16c-0.12,0-0.24-0.02-0.38-0.07c-0.13-0.05-0.24-0.12-0.32-0.21    c-0.08-0.1-0.14-0.21-0.16-0.36c-0.02-0.14,0.01-0.31,0.11-0.5L98.26,269.54z M100.37,285.12h3.19c0.24,0,0.41-0.08,0.52-0.23    s0.1-0.34-0.02-0.56c-0.24-0.6-0.53-1.29-0.86-2.1c-0.34-0.8-0.65-1.55-0.93-2.24c-0.1-0.22-0.2-0.32-0.32-0.32    c-0.12,0-0.23,0.11-0.32,0.32l-1.79,4.33c-0.1,0.21-0.1,0.4,0,0.56C99.93,285.05,100.11,285.12,100.37,285.12z"></path>		<path class="st4" d="M134.81,281.43c0.38,0.21,0.76,0.48,1.15,0.79c0.38,0.31,0.73,0.69,1.06,1.15c0.32,0.45,0.58,0.98,0.79,1.58    c0.2,0.6,0.3,1.28,0.3,2.04c0,1.55-0.25,2.84-0.73,3.85c-0.49,1.02-1.15,1.83-1.99,2.44c-0.84,0.61-1.8,1.04-2.88,1.29    c-1.09,0.25-2.23,0.38-3.42,0.38h-11.36c-0.24,0-0.44-0.08-0.61-0.25c-0.17-0.17-0.25-0.37-0.25-0.61v-24.51    c0-0.24,0.08-0.44,0.25-0.61c0.17-0.17,0.37-0.25,0.61-0.25h10.82c1.15,0,2.25,0.13,3.3,0.38c1.05,0.25,1.98,0.66,2.78,1.24    c0.8,0.57,1.44,1.32,1.93,2.24c0.49,0.92,0.73,2.05,0.73,3.39c0,1.07-0.27,2.01-0.81,2.79c-0.54,0.79-1.12,1.41-1.74,1.86    C134.31,280.92,134.33,281.2,134.81,281.43z M124.81,278.67h3.33c0.48,0,0.86-0.18,1.15-0.55c0.29-0.37,0.43-0.78,0.43-1.24    c0-0.43-0.17-0.8-0.52-1.11c-0.35-0.31-0.68-0.47-0.99-0.47h-3.4c-0.24,0-0.44,0.08-0.61,0.25c-0.17,0.17-0.25,0.37-0.25,0.61    v1.65c0,0.24,0.08,0.44,0.25,0.61C124.37,278.59,124.57,278.67,124.81,278.67z M128.57,284.59h-3.76c-0.24,0-0.44,0.08-0.61,0.25    c-0.17,0.17-0.25,0.37-0.25,0.61v2.04c0,0.24,0.08,0.44,0.25,0.61c0.17,0.17,0.37,0.25,0.61,0.25h4.01c0.43,0,0.84-0.18,1.22-0.54    c0.38-0.36,0.57-0.78,0.57-1.26c0-0.43-0.19-0.87-0.56-1.31C129.69,284.81,129.19,284.59,128.57,284.59z"></path>		<path class="st4" d="M146.45,294.94h-5.37c-0.24,0-0.44-0.08-0.61-0.25c-0.17-0.17-0.25-0.37-0.25-0.61v-24.51    c0-0.24,0.08-0.44,0.25-0.61c0.17-0.17,0.37-0.25,0.61-0.25h11.14c1.39,0,2.66,0.23,3.83,0.7c1.17,0.47,2.17,1.12,2.99,1.95    c0.82,0.84,1.47,1.83,1.94,2.98c0.47,1.15,0.7,2.41,0.7,3.8c0,0.77-0.09,1.52-0.27,2.28c-0.18,0.75-0.44,1.46-0.77,2.13    c-0.33,0.67-0.73,1.27-1.18,1.81c-0.45,0.54-0.97,0.98-1.54,1.34c-0.19,0.14-0.32,0.32-0.38,0.52c-0.06,0.2-0.02,0.4,0.13,0.59    c0.91,1.19,1.86,2.42,2.87,3.69c1,1.27,1.9,2.42,2.69,3.48c0.14,0.19,0.18,0.4,0.11,0.63s-0.23,0.34-0.47,0.34h-6.67    c-0.24,0-0.5-0.07-0.77-0.2c-0.28-0.13-0.48-0.29-0.63-0.48c-0.76-1-1.52-2.02-2.27-3.05c-0.75-1.03-1.49-2.07-2.23-3.12    c-0.14-0.19-0.35-0.35-0.61-0.48c-0.26-0.13-0.51-0.2-0.75-0.2h-0.78c-0.24,0-0.44,0.08-0.61,0.25c-0.17,0.17-0.25,0.37-0.25,0.61    v5.81c0,0.24-0.08,0.44-0.25,0.61C146.89,294.86,146.69,294.94,146.45,294.94z M148.17,280.82h3.78c0.28,0,0.58-0.05,0.89-0.16    c0.31-0.11,0.59-0.27,0.86-0.5c0.26-0.23,0.48-0.51,0.64-0.84c0.17-0.33,0.25-0.73,0.25-1.18c0-0.24-0.04-0.52-0.12-0.84    c-0.08-0.32-0.23-0.63-0.43-0.93s-0.48-0.55-0.82-0.75c-0.34-0.2-0.77-0.3-1.27-0.3h-3.78c-0.24,0-0.44,0.08-0.61,0.25    c-0.17,0.17-0.25,0.37-0.25,0.61v3.8c0,0.24,0.08,0.44,0.25,0.61C147.73,280.74,147.93,280.82,148.17,280.82z"></path>		<path class="st4" d="M170.72,294.94h-5.38c-0.26,0-0.47-0.08-0.62-0.25c-0.15-0.17-0.23-0.37-0.23-0.61v-24.48    c0-0.24,0.08-0.44,0.23-0.61c0.15-0.17,0.36-0.25,0.62-0.25h5.38c0.24,0,0.44,0.08,0.61,0.25c0.17,0.17,0.25,0.37,0.25,0.61v24.48    c0,0.24-0.08,0.44-0.25,0.61C171.16,294.86,170.96,294.94,170.72,294.94z"></path>		<path class="st4" d="M199.92,287.99c-0.69,1.12-1.46,2.14-2.29,3.05c-0.84,0.92-1.77,1.69-2.81,2.34    c-1.04,0.64-2.19,1.14-3.46,1.5c-1.27,0.36-2.66,0.54-4.19,0.54c-1.91,0-3.7-0.36-5.38-1.08s-3.14-1.68-4.39-2.9    c-1.25-1.22-2.24-2.65-2.96-4.3c-0.72-1.65-1.07-3.4-1.07-5.27s0.36-3.62,1.07-5.27c0.72-1.65,1.7-3.08,2.96-4.3    c1.25-1.22,2.72-2.19,4.39-2.9c1.67-0.72,3.46-1.08,5.38-1.08c1.58,0,3,0.18,4.26,0.54c1.27,0.36,2.41,0.86,3.44,1.5    c1.03,0.65,1.95,1.43,2.78,2.35c0.82,0.92,1.58,1.93,2.28,3.03c0.12,0.19,0.14,0.39,0.07,0.61c-0.07,0.22-0.22,0.37-0.43,0.47    l-5.09,2.01c-0.24,0.1-0.48,0.1-0.72,0c-0.24-0.1-0.42-0.24-0.54-0.43c-0.69-1.1-1.53-1.94-2.51-2.53    c-0.98-0.59-2.16-0.88-3.55-0.88c-0.91,0-1.76,0.19-2.56,0.58c-0.8,0.38-1.5,0.89-2.1,1.53c-0.6,0.63-1.06,1.37-1.4,2.21    c-0.33,0.84-0.5,1.7-0.5,2.59c0,0.91,0.17,1.78,0.5,2.6c0.33,0.83,0.8,1.55,1.4,2.17c0.6,0.62,1.3,1.13,2.1,1.51    c0.8,0.38,1.65,0.58,2.56,0.58c1.31,0,2.5-0.32,3.57-0.95c1.06-0.63,1.9-1.45,2.53-2.45c0.12-0.19,0.29-0.33,0.52-0.43    c0.23-0.1,0.46-0.1,0.7,0l5.09,2.01c0.21,0.1,0.36,0.24,0.43,0.45C200.06,287.57,200.04,287.78,199.92,287.99z"></path>		<path class="st4" d="M207.45,269.54c0.09-0.21,0.26-0.4,0.48-0.55c0.23-0.16,0.47-0.23,0.73-0.23h5.02c0.24,0,0.47,0.08,0.7,0.23    c0.23,0.16,0.39,0.34,0.48,0.55l10.46,24.37c0.09,0.21,0.08,0.44-0.05,0.68c-0.13,0.24-0.39,0.36-0.77,0.36h-6.13    c-0.26,0-0.51-0.08-0.73-0.23c-0.23-0.16-0.4-0.34-0.52-0.56l-0.97-2.15c-0.12-0.21-0.29-0.4-0.52-0.55    c-0.23-0.16-0.46-0.23-0.7-0.23h-7.56c-0.26,0-0.51,0.08-0.73,0.23c-0.23,0.15-0.39,0.34-0.48,0.55l-1,2.15    c-0.1,0.21-0.26,0.4-0.48,0.56c-0.23,0.15-0.46,0.23-0.7,0.23h-6.16c-0.12,0-0.24-0.02-0.38-0.07c-0.13-0.05-0.24-0.12-0.32-0.21    c-0.08-0.1-0.14-0.21-0.16-0.36c-0.02-0.14,0.01-0.31,0.11-0.5L207.45,269.54z M209.56,285.12h3.19c0.24,0,0.41-0.08,0.52-0.23    c0.11-0.16,0.1-0.34-0.02-0.56c-0.24-0.6-0.53-1.29-0.86-2.1c-0.34-0.8-0.65-1.55-0.93-2.24c-0.1-0.22-0.2-0.32-0.32-0.32    c-0.12,0-0.23,0.11-0.32,0.32l-1.79,4.33c-0.1,0.21-0.1,0.4,0,0.56C209.12,285.05,209.3,285.12,209.56,285.12z"></path>		<path class="st4" d="M249.98,287.99c-0.69,1.12-1.46,2.14-2.29,3.05c-0.84,0.92-1.77,1.69-2.81,2.34    c-1.04,0.64-2.19,1.14-3.46,1.5c-1.27,0.36-2.66,0.54-4.19,0.54c-1.91,0-3.7-0.36-5.38-1.08c-1.67-0.72-3.14-1.68-4.39-2.9    c-1.25-1.22-2.24-2.65-2.96-4.3c-0.72-1.65-1.07-3.4-1.07-5.27s0.36-3.62,1.07-5.27c0.72-1.65,1.7-3.08,2.96-4.3    c1.25-1.22,2.72-2.19,4.39-2.9c1.67-0.72,3.46-1.08,5.38-1.08c1.58,0,3,0.18,4.26,0.54c1.27,0.36,2.41,0.86,3.44,1.5    c1.03,0.65,1.95,1.43,2.78,2.35c0.82,0.92,1.58,1.93,2.28,3.03c0.12,0.19,0.14,0.39,0.07,0.61c-0.07,0.22-0.22,0.37-0.43,0.47    l-5.09,2.01c-0.24,0.1-0.48,0.1-0.72,0c-0.24-0.1-0.42-0.24-0.54-0.43c-0.69-1.1-1.53-1.94-2.51-2.53    c-0.98-0.59-2.16-0.88-3.55-0.88c-0.91,0-1.76,0.19-2.56,0.58c-0.8,0.38-1.5,0.89-2.1,1.53c-0.6,0.63-1.06,1.37-1.4,2.21    c-0.33,0.84-0.5,1.7-0.5,2.59c0,0.91,0.17,1.78,0.5,2.6c0.33,0.83,0.8,1.55,1.4,2.17c0.6,0.62,1.3,1.13,2.1,1.51    c0.8,0.38,1.65,0.58,2.56,0.58c1.31,0,2.5-0.32,3.57-0.95c1.06-0.63,1.9-1.45,2.53-2.45c0.12-0.19,0.29-0.33,0.52-0.43    c0.23-0.1,0.46-0.1,0.7,0l5.09,2.01c0.21,0.1,0.36,0.24,0.43,0.45C250.12,287.57,250.1,287.78,249.98,287.99z"></path>		<path class="st4" d="M257.4,294.94h-5.38c-0.26,0-0.47-0.08-0.62-0.25c-0.15-0.17-0.23-0.37-0.23-0.61v-24.48    c0-0.24,0.08-0.44,0.23-0.61c0.15-0.17,0.36-0.25,0.62-0.25h5.38c0.24,0,0.44,0.08,0.61,0.25c0.17,0.17,0.25,0.37,0.25,0.61v24.48    c0,0.24-0.08,0.44-0.25,0.61C257.84,294.86,257.64,294.94,257.4,294.94z"></path>		<path class="st4" d="M260.12,281.83c0-1.86,0.36-3.62,1.07-5.27c0.72-1.65,1.68-3.09,2.9-4.32s2.65-2.2,4.3-2.92    c1.65-0.72,3.4-1.07,5.27-1.07c1.86,0,3.62,0.36,5.27,1.07c1.65,0.72,3.09,1.69,4.32,2.92c1.23,1.23,2.2,2.67,2.92,4.32    c0.72,1.65,1.07,3.4,1.07,5.27c0,1.86-0.36,3.62-1.07,5.27c-0.72,1.65-1.69,3.09-2.92,4.32c-1.23,1.23-2.67,2.2-4.32,2.92    c-1.65,0.72-3.4,1.08-5.27,1.08c-1.86,0-3.62-0.36-5.27-1.08c-1.65-0.72-3.08-1.69-4.3-2.92c-1.22-1.23-2.19-2.67-2.9-4.32    C260.48,285.45,260.12,283.69,260.12,281.83z M267.22,281.83c0,0.91,0.17,1.77,0.5,2.58c0.33,0.81,0.79,1.53,1.38,2.15    c0.58,0.62,1.27,1.12,2.06,1.49c0.79,0.37,1.62,0.55,2.51,0.55c0.88,0,1.72-0.18,2.51-0.55c0.79-0.37,1.48-0.87,2.08-1.49    c0.6-0.62,1.06-1.34,1.4-2.15c0.33-0.81,0.5-1.67,0.5-2.58c0-0.88-0.17-1.74-0.5-2.56c-0.33-0.82-0.8-1.54-1.4-2.15    c-0.6-0.61-1.29-1.1-2.08-1.47c-0.79-0.37-1.62-0.56-2.51-0.56c-0.88,0-1.72,0.19-2.51,0.56c-0.79,0.37-1.48,0.86-2.06,1.47    c-0.59,0.61-1.05,1.33-1.38,2.15C267.38,280.09,267.22,280.94,267.22,281.83z M275.53,260.08l5.16,2.22    c0.48,0.24,0.51,0.53,0.11,0.86l-5.12,3.83c-0.19,0.14-0.44,0.27-0.73,0.38c-0.3,0.11-0.57,0.16-0.81,0.16h-4.55    c-0.24,0-0.39-0.07-0.47-0.2c-0.07-0.13-0.02-0.29,0.14-0.48l4.94-6.41c0.14-0.19,0.35-0.32,0.61-0.39    C275.08,259.97,275.31,259.98,275.53,260.08z"></path>		<path class="st4" d="M313.8,269.57v24.51c0,0.24-0.08,0.44-0.25,0.61c-0.17,0.17-0.37,0.25-0.61,0.25h-5.29    c-0.24,0-0.49-0.07-0.75-0.21c-0.26-0.14-0.46-0.31-0.61-0.5l-9.33-13.15c-0.14-0.19-0.29-0.27-0.45-0.23    c-0.16,0.04-0.23,0.17-0.23,0.41v12.83c0,0.24-0.08,0.44-0.25,0.61c-0.17,0.17-0.37,0.25-0.61,0.25h-5.37    c-0.24,0-0.44-0.08-0.61-0.25c-0.17-0.17-0.25-0.37-0.25-0.61v-24.51c0-0.24,0.08-0.44,0.25-0.61c0.17-0.17,0.37-0.25,0.61-0.25    h5.38c0.24,0,0.49,0.07,0.75,0.2c0.26,0.13,0.47,0.29,0.61,0.48l9.32,13.15c0.14,0.19,0.29,0.28,0.45,0.25    c0.16-0.02,0.23-0.15,0.23-0.39v-12.83c0-0.24,0.08-0.44,0.25-0.61c0.17-0.17,0.37-0.25,0.61-0.25h5.3c0.24,0,0.44,0.08,0.61,0.25    C313.72,269.13,313.8,269.33,313.8,269.57z"></path>		<path class="st4" d="M334.91,276.17v1.51c0,0.24,0.08,0.44,0.25,0.61c0.17,0.17,0.37,0.25,0.61,0.25h9.71    c0.24,0,0.44,0.08,0.61,0.25c0.17,0.17,0.25,0.37,0.25,0.61v4.94c0,0.24-0.08,0.44-0.25,0.61c-0.17,0.17-0.37,0.25-0.61,0.25    h-9.71c-0.24,0-0.44,0.08-0.61,0.25c-0.17,0.17-0.25,0.37-0.25,0.61v1.36c0,0.24,0.08,0.44,0.25,0.61    c0.17,0.17,0.37,0.25,0.61,0.25h11.14c0.24,0,0.44,0.08,0.61,0.25c0.17,0.17,0.25,0.37,0.25,0.61v4.95c0,0.24-0.08,0.44-0.25,0.61    c-0.17,0.17-0.37,0.25-0.61,0.25h-18.24c-0.24,0-0.44-0.08-0.61-0.25c-0.17-0.17-0.25-0.37-0.25-0.61v-24.51    c0-0.24,0.08-0.44,0.25-0.61c0.17-0.17,0.37-0.25,0.61-0.25h18.24c0.24,0,0.44,0.08,0.61,0.25c0.17,0.17,0.25,0.37,0.25,0.61v4.87    c0,0.24-0.08,0.44-0.25,0.61c-0.17,0.17-0.37,0.25-0.61,0.25h-11.14c-0.24,0-0.44,0.08-0.61,0.25    C334.99,275.72,334.91,275.93,334.91,276.17z"></path>		<path class="st4" d="M367.52,294.94h-5.38c-0.26,0-0.47-0.08-0.62-0.25c-0.15-0.17-0.23-0.37-0.23-0.61v-24.48    c0-0.24,0.08-0.44,0.23-0.61c0.15-0.17,0.36-0.25,0.62-0.25h5.38c0.24,0,0.44,0.08,0.61,0.25c0.17,0.17,0.25,0.37,0.25,0.61v24.48    c0,0.24-0.08,0.44-0.25,0.61C367.96,294.86,367.76,294.94,367.52,294.94z"></path>		<path class="st4" d="M396.04,269.57v24.51c0,0.24-0.08,0.44-0.25,0.61c-0.17,0.17-0.37,0.25-0.61,0.25h-5.29    c-0.24,0-0.49-0.07-0.75-0.21c-0.26-0.14-0.46-0.31-0.61-0.5l-9.33-13.15c-0.14-0.19-0.29-0.27-0.45-0.23    c-0.16,0.04-0.23,0.17-0.23,0.41v12.83c0,0.24-0.08,0.44-0.25,0.61c-0.17,0.17-0.37,0.25-0.61,0.25h-5.37    c-0.24,0-0.44-0.08-0.61-0.25c-0.17-0.17-0.25-0.37-0.25-0.61v-24.51c0-0.24,0.08-0.44,0.25-0.61c0.17-0.17,0.37-0.25,0.61-0.25    h5.38c0.24,0,0.49,0.07,0.75,0.2c0.26,0.13,0.47,0.29,0.61,0.48l9.32,13.15c0.14,0.19,0.29,0.28,0.45,0.25    c0.16-0.02,0.23-0.15,0.23-0.39v-12.83c0-0.24,0.08-0.44,0.25-0.61c0.17-0.17,0.37-0.25,0.61-0.25h5.3c0.24,0,0.44,0.08,0.61,0.25    C395.96,269.13,396.04,269.33,396.04,269.57z"></path>		<path class="st4" d="M402.6,285.95c1.29,0.84,2.57,1.49,3.83,1.97c1.27,0.48,2.45,0.72,3.55,0.72c1.05,0,1.85-0.15,2.4-0.45    c0.55-0.3,0.82-0.75,0.82-1.34c0-0.31-0.12-0.55-0.36-0.73c-0.24-0.18-0.56-0.33-0.95-0.45c-0.39-0.12-0.85-0.21-1.38-0.29    c-0.53-0.07-1.06-0.17-1.61-0.29c-0.53-0.1-1.14-0.21-1.85-0.34c-0.7-0.13-1.43-0.32-2.17-0.57c-0.74-0.25-1.48-0.57-2.2-0.95    c-0.73-0.38-1.38-0.87-1.95-1.47c-0.57-0.6-1.03-1.31-1.38-2.13c-0.35-0.82-0.52-1.8-0.52-2.92c0-1.65,0.32-3.01,0.97-4.08    c0.64-1.08,1.46-1.93,2.45-2.56c0.99-0.63,2.1-1.07,3.32-1.33c1.22-0.25,2.4-0.38,3.55-0.38c2.01,0,3.8,0.29,5.39,0.88    c1.59,0.59,3.11,1.44,4.57,2.56c0.19,0.17,0.3,0.37,0.32,0.61c0.02,0.24-0.04,0.45-0.18,0.64l-2.79,3.98    c-0.14,0.19-0.33,0.31-0.57,0.36c-0.24,0.05-0.45,0-0.65-0.14c-1.22-0.76-2.35-1.31-3.4-1.63c-1.05-0.32-2.02-0.48-2.9-0.48    c-0.26,0-0.57,0.01-0.91,0.02c-0.35,0.01-0.68,0.06-0.99,0.14c-0.31,0.08-0.57,0.22-0.77,0.41c-0.2,0.19-0.3,0.45-0.3,0.79    c0,0.33,0.25,0.63,0.75,0.9c0.5,0.26,1.08,0.49,1.72,0.68c0.65,0.19,1.27,0.34,1.86,0.45c0.6,0.11,0.98,0.17,1.15,0.2    c0.86,0.17,1.8,0.41,2.83,0.73c1.03,0.32,1.99,0.8,2.88,1.43c0.9,0.63,1.65,1.46,2.26,2.47c0.61,1.02,0.91,2.29,0.91,3.82    c0,1.43-0.25,2.67-0.75,3.71c-0.5,1.04-1.2,1.89-2.1,2.56c-0.9,0.67-1.97,1.17-3.23,1.49c-1.25,0.32-2.65,0.48-4.17,0.48    c-1.24,0-2.4-0.1-3.48-0.3c-1.07-0.2-2.08-0.48-3.01-0.84c-0.93-0.36-1.8-0.78-2.6-1.27c-0.8-0.49-1.54-1.01-2.2-1.56    c-0.19-0.14-0.3-0.34-0.32-0.59c-0.02-0.25,0.04-0.47,0.18-0.66l2.76-3.98c0.14-0.19,0.33-0.31,0.57-0.36    C402.19,285.79,402.41,285.83,402.6,285.95z"></path>		<path class="st4" d="M438.65,275.3h-5.02c-0.24,0-0.44,0.08-0.61,0.25c-0.17,0.17-0.25,0.37-0.25,0.61v17.92    c0,0.24-0.08,0.44-0.23,0.61c-0.16,0.17-0.36,0.25-0.63,0.25h-5.38c-0.24,0-0.44-0.08-0.61-0.25c-0.17-0.17-0.25-0.37-0.25-0.61    v-17.92c0-0.24-0.08-0.44-0.23-0.61c-0.16-0.17-0.36-0.25-0.63-0.25h-5.09c-0.24,0-0.44-0.08-0.61-0.25    c-0.17-0.17-0.25-0.37-0.25-0.61v-4.87c0-0.24,0.08-0.44,0.25-0.61c0.17-0.17,0.37-0.25,0.61-0.25h18.92    c0.26,0,0.47,0.08,0.63,0.25c0.16,0.17,0.23,0.37,0.23,0.61v4.87c0,0.24-0.08,0.44-0.23,0.61    C439.12,275.22,438.91,275.3,438.65,275.3z"></path>		<path class="st4" d="M445.42,269.54c0.09-0.21,0.26-0.4,0.48-0.55c0.23-0.16,0.47-0.23,0.73-0.23h5.02c0.24,0,0.47,0.08,0.7,0.23    c0.23,0.16,0.39,0.34,0.48,0.55l10.46,24.37c0.09,0.21,0.08,0.44-0.05,0.68c-0.13,0.24-0.39,0.36-0.77,0.36h-6.13    c-0.26,0-0.51-0.08-0.73-0.23c-0.23-0.16-0.4-0.34-0.52-0.56l-0.97-2.15c-0.12-0.21-0.29-0.4-0.52-0.55    c-0.23-0.16-0.46-0.23-0.7-0.23h-7.56c-0.26,0-0.51,0.08-0.73,0.23c-0.23,0.15-0.39,0.34-0.48,0.55l-1,2.15    c-0.1,0.21-0.26,0.4-0.48,0.56c-0.23,0.15-0.46,0.23-0.7,0.23h-6.16c-0.12,0-0.24-0.02-0.38-0.07c-0.13-0.05-0.24-0.12-0.32-0.21    c-0.08-0.1-0.14-0.21-0.16-0.36c-0.02-0.14,0.01-0.31,0.11-0.5L445.42,269.54z M447.54,285.12h3.19c0.24,0,0.41-0.08,0.52-0.23    c0.11-0.16,0.1-0.34-0.02-0.56c-0.24-0.6-0.53-1.29-0.86-2.1c-0.34-0.8-0.65-1.55-0.93-2.24c-0.1-0.22-0.2-0.32-0.32-0.32    c-0.12,0-0.23,0.11-0.32,0.32l-1.79,4.33c-0.1,0.21-0.1,0.4,0,0.56C447.09,285.05,447.27,285.12,447.54,285.12z"></path>		<path class="st4" d="M482.72,289.21v4.87c0,0.24-0.08,0.44-0.25,0.61c-0.17,0.17-0.37,0.25-0.61,0.25h-17.88    c-0.26,0-0.47-0.08-0.63-0.25c-0.16-0.17-0.23-0.37-0.23-0.61v-24.51c0-0.24,0.08-0.44,0.23-0.61c0.16-0.17,0.36-0.25,0.63-0.25    h5.38c0.24,0,0.44,0.08,0.61,0.25c0.17,0.17,0.25,0.37,0.25,0.61v17.92c0,0.24,0.08,0.44,0.23,0.61c0.16,0.17,0.36,0.25,0.63,0.25    h10.79c0.24,0,0.44,0.08,0.61,0.25C482.64,288.77,482.72,288.97,482.72,289.21z"></path>		<path class="st4" d="M491.97,269.54c0.09-0.21,0.26-0.4,0.48-0.55c0.23-0.16,0.47-0.23,0.73-0.23h5.02c0.24,0,0.47,0.08,0.7,0.23    c0.23,0.16,0.39,0.34,0.48,0.55l10.46,24.37c0.09,0.21,0.08,0.44-0.05,0.68c-0.13,0.24-0.39,0.36-0.77,0.36h-6.13    c-0.26,0-0.51-0.08-0.73-0.23c-0.23-0.16-0.4-0.34-0.52-0.56l-0.97-2.15c-0.12-0.21-0.29-0.4-0.52-0.55    c-0.23-0.16-0.46-0.23-0.7-0.23h-7.56c-0.26,0-0.51,0.08-0.73,0.23c-0.23,0.15-0.39,0.34-0.48,0.55l-1,2.15    c-0.1,0.21-0.26,0.4-0.48,0.56c-0.23,0.15-0.46,0.23-0.7,0.23h-6.16c-0.12,0-0.24-0.02-0.38-0.07c-0.13-0.05-0.24-0.12-0.32-0.21    c-0.08-0.1-0.14-0.21-0.16-0.36c-0.02-0.14,0.01-0.31,0.11-0.5L491.97,269.54z M494.08,285.12h3.19c0.24,0,0.41-0.08,0.52-0.23    c0.11-0.16,0.1-0.34-0.02-0.56c-0.24-0.6-0.53-1.29-0.86-2.1c-0.34-0.8-0.65-1.55-0.93-2.24c-0.1-0.22-0.2-0.32-0.32-0.32    c-0.12,0-0.23,0.11-0.32,0.32l-1.79,4.33c-0.1,0.21-0.1,0.4,0,0.56C493.64,285.05,493.82,285.12,494.08,285.12z"></path>		<path class="st4" d="M534.5,287.99c-0.69,1.12-1.46,2.14-2.29,3.05c-0.84,0.92-1.77,1.69-2.81,2.34c-1.04,0.64-2.19,1.14-3.46,1.5    c-1.27,0.36-2.66,0.54-4.19,0.54c-1.91,0-3.7-0.36-5.38-1.08c-1.67-0.72-3.14-1.68-4.39-2.9c-1.25-1.22-2.24-2.65-2.96-4.3    c-0.72-1.65-1.07-3.4-1.07-5.27s0.36-3.62,1.07-5.27c0.72-1.65,1.7-3.08,2.96-4.3c1.25-1.22,2.72-2.19,4.39-2.9    c1.67-0.72,3.46-1.08,5.38-1.08c1.58,0,3,0.18,4.26,0.54c1.27,0.36,2.41,0.86,3.44,1.5c1.03,0.65,1.95,1.43,2.78,2.35    c0.82,0.92,1.58,1.93,2.28,3.03c0.12,0.19,0.14,0.39,0.07,0.61c-0.07,0.22-0.22,0.37-0.43,0.47l-5.09,2.01    c-0.24,0.1-0.48,0.1-0.72,0c-0.24-0.1-0.42-0.24-0.54-0.43c-0.69-1.1-1.53-1.94-2.51-2.53c-0.98-0.59-2.16-0.88-3.55-0.88    c-0.91,0-1.76,0.19-2.56,0.58c-0.8,0.38-1.5,0.89-2.1,1.53c-0.6,0.63-1.06,1.37-1.4,2.21c-0.33,0.84-0.5,1.7-0.5,2.59    c0,0.91,0.17,1.78,0.5,2.6c0.33,0.83,0.8,1.55,1.4,2.17c0.6,0.62,1.3,1.13,2.1,1.51c0.8,0.38,1.65,0.58,2.56,0.58    c1.31,0,2.5-0.32,3.57-0.95c1.06-0.63,1.9-1.45,2.53-2.45c0.12-0.19,0.29-0.33,0.52-0.43c0.23-0.1,0.46-0.1,0.7,0l5.09,2.01    c0.21,0.1,0.36,0.24,0.43,0.45C534.65,287.57,534.62,287.78,534.5,287.99z"></path>		<path class="st4" d="M541.93,294.94h-5.38c-0.26,0-0.47-0.08-0.62-0.25c-0.15-0.17-0.23-0.37-0.23-0.61v-24.48    c0-0.24,0.08-0.44,0.23-0.61c0.15-0.17,0.36-0.25,0.62-0.25h5.38c0.24,0,0.44,0.08,0.61,0.25c0.17,0.17,0.25,0.37,0.25,0.61v24.48    c0,0.24-0.08,0.44-0.25,0.61C542.37,294.86,542.16,294.94,541.93,294.94z"></path>		<path class="st4" d="M544.65,281.83c0-1.86,0.36-3.62,1.08-5.27c0.72-1.65,1.68-3.09,2.9-4.32s2.65-2.2,4.3-2.92    c1.65-0.72,3.4-1.07,5.27-1.07c1.86,0,3.62,0.36,5.27,1.07c1.65,0.72,3.09,1.69,4.32,2.92s2.2,2.67,2.92,4.32    c0.72,1.65,1.08,3.4,1.08,5.27c0,1.86-0.36,3.62-1.08,5.27c-0.72,1.65-1.69,3.09-2.92,4.32c-1.23,1.23-2.67,2.2-4.32,2.92    c-1.65,0.72-3.4,1.08-5.27,1.08c-1.86,0-3.62-0.36-5.27-1.08c-1.65-0.72-3.08-1.69-4.3-2.92c-1.22-1.23-2.19-2.67-2.9-4.32    C545,285.45,544.65,283.69,544.65,281.83z M551.74,281.83c0,0.91,0.17,1.77,0.5,2.58c0.33,0.81,0.79,1.53,1.38,2.15    c0.58,0.62,1.27,1.12,2.06,1.49c0.79,0.37,1.62,0.55,2.51,0.55c0.88,0,1.72-0.18,2.51-0.55c0.79-0.37,1.48-0.87,2.08-1.49    c0.6-0.62,1.06-1.34,1.4-2.15c0.33-0.81,0.5-1.67,0.5-2.58c0-0.88-0.17-1.74-0.5-2.56c-0.34-0.82-0.8-1.54-1.4-2.15    c-0.6-0.61-1.29-1.1-2.08-1.47c-0.79-0.37-1.62-0.56-2.51-0.56c-0.88,0-1.72,0.19-2.51,0.56c-0.79,0.37-1.48,0.86-2.06,1.47    c-0.59,0.61-1.05,1.33-1.38,2.15C551.91,280.09,551.74,280.94,551.74,281.83z M560.05,260.08l5.16,2.22    c0.48,0.24,0.51,0.53,0.11,0.86l-5.12,3.83c-0.19,0.14-0.44,0.27-0.73,0.38c-0.3,0.11-0.57,0.16-0.81,0.16h-4.55    c-0.24,0-0.39-0.07-0.46-0.2c-0.07-0.13-0.03-0.29,0.14-0.48l4.95-6.41c0.14-0.19,0.35-0.32,0.61-0.39    C559.6,259.97,559.84,259.98,560.05,260.08z"></path>		<path class="st4" d="M598.32,269.57v24.51c0,0.24-0.08,0.44-0.25,0.61c-0.17,0.17-0.37,0.25-0.61,0.25h-5.29    c-0.24,0-0.49-0.07-0.75-0.21c-0.26-0.14-0.46-0.31-0.61-0.5l-9.33-13.15c-0.14-0.19-0.29-0.27-0.45-0.23    c-0.15,0.04-0.23,0.17-0.23,0.41v12.83c0,0.24-0.08,0.44-0.25,0.61c-0.17,0.17-0.37,0.25-0.61,0.25h-5.37    c-0.24,0-0.44-0.08-0.61-0.25c-0.17-0.17-0.25-0.37-0.25-0.61v-24.51c0-0.24,0.08-0.44,0.25-0.61c0.17-0.17,0.37-0.25,0.61-0.25    h5.38c0.24,0,0.49,0.07,0.75,0.2c0.26,0.13,0.47,0.29,0.61,0.48l9.32,13.15c0.14,0.19,0.29,0.28,0.45,0.25    c0.15-0.02,0.23-0.15,0.23-0.39v-12.83c0-0.24,0.08-0.44,0.25-0.61c0.17-0.17,0.37-0.25,0.61-0.25h5.3c0.24,0,0.44,0.08,0.61,0.25    C598.24,269.13,598.32,269.33,598.32,269.57z"></path>		<path class="st4" d="M612.44,294.08v-24.51c0-0.24,0.08-0.44,0.25-0.61c0.17-0.17,0.37-0.25,0.61-0.25h9.78    c3.75,0,6.82,1.1,9.21,3.3c1.29,1.19,2.27,2.62,2.94,4.26c0.67,1.65,1,3.5,1,5.55c0,2.05-0.34,3.91-1,5.57    c-0.67,1.66-1.65,3.09-2.94,4.28c-1.19,1.07-2.56,1.89-4.1,2.44c-1.54,0.55-3.24,0.82-5.11,0.82h-9.78    c-0.24,0-0.44-0.08-0.61-0.25C612.53,294.52,612.44,294.32,612.44,294.08z M620.4,288.35h2.69c0.67,0,1.36-0.08,2.08-0.25    c0.72-0.17,1.36-0.48,1.93-0.95c0.57-0.46,1.04-1.12,1.42-1.97c0.37-0.85,0.56-1.95,0.56-3.32c0-1.36-0.19-2.47-0.56-3.32    c-0.37-0.85-0.85-1.51-1.43-1.97c-0.59-0.47-1.23-0.78-1.93-0.95c-0.7-0.17-1.39-0.25-2.06-0.25h-2.69    c-0.24,0-0.44,0.08-0.61,0.25c-0.17,0.17-0.25,0.37-0.25,0.61v11.25c0,0.24,0.08,0.44,0.25,0.61    C619.96,288.27,620.16,288.35,620.4,288.35z"></path>		<path class="st4" d="M644.7,276.17v1.51c0,0.24,0.08,0.44,0.25,0.61c0.17,0.17,0.37,0.25,0.61,0.25h9.71    c0.24,0,0.44,0.08,0.61,0.25c0.17,0.17,0.25,0.37,0.25,0.61v4.94c0,0.24-0.09,0.44-0.25,0.61c-0.17,0.17-0.37,0.25-0.61,0.25    h-9.71c-0.24,0-0.44,0.08-0.61,0.25c-0.17,0.17-0.25,0.37-0.25,0.61v1.36c0,0.24,0.08,0.44,0.25,0.61    c0.17,0.17,0.37,0.25,0.61,0.25h11.14c0.24,0,0.44,0.08,0.61,0.25c0.17,0.17,0.25,0.37,0.25,0.61v4.95c0,0.24-0.08,0.44-0.25,0.61    c-0.17,0.17-0.37,0.25-0.61,0.25h-18.24c-0.24,0-0.44-0.08-0.61-0.25c-0.17-0.17-0.25-0.37-0.25-0.61v-24.51    c0-0.24,0.08-0.44,0.25-0.61c0.17-0.17,0.37-0.25,0.61-0.25h18.24c0.24,0,0.44,0.08,0.61,0.25c0.17,0.17,0.25,0.37,0.25,0.61v4.87    c0,0.24-0.08,0.44-0.25,0.61c-0.17,0.17-0.37,0.25-0.61,0.25h-11.14c-0.24,0-0.44,0.08-0.61,0.25    C644.78,275.72,644.7,275.93,644.7,276.17z"></path>		<path class="st4" d="M681.83,287.88h-3.13c-0.24,0-0.44,0.08-0.61,0.25c-0.17,0.17-0.25,0.37-0.25,0.61v5.34    c0,0.24-0.08,0.44-0.25,0.61c-0.17,0.17-0.37,0.25-0.61,0.25h-5.38c-0.24,0-0.44-0.08-0.61-0.25c-0.17-0.17-0.25-0.37-0.25-0.61    v-24.51c0-0.24,0.08-0.44,0.25-0.61c0.17-0.17,0.37-0.25,0.61-0.25h10.97c1.34,0,2.6,0.25,3.78,0.75c1.18,0.5,2.21,1.19,3.08,2.08    c0.87,0.88,1.56,1.91,2.08,3.08c0.51,1.17,0.77,2.42,0.77,3.76s-0.21,2.59-0.65,3.74c-0.43,1.16-1.08,2.16-1.96,3.01    c-0.87,0.85-1.96,1.52-3.27,2.01C685.1,287.64,683.58,287.88,681.83,287.88z M682.09,275.3h-3.39c-0.24,0-0.44,0.08-0.61,0.25    c-0.17,0.17-0.25,0.37-0.25,0.6v4.2c0,0.24,0.08,0.44,0.25,0.6c0.17,0.17,0.37,0.25,0.61,0.25h3.85c0.91,0,1.58-0.29,2-0.87    c0.42-0.58,0.63-1.24,0.63-1.98c0-0.38-0.07-0.75-0.2-1.12c-0.13-0.37-0.33-0.69-0.59-0.98c-0.26-0.29-0.59-0.52-0.97-0.69    C683.04,275.39,682.59,275.3,682.09,275.3z"></path>		<path class="st4" d="M699.81,294.94h-5.38c-0.26,0-0.47-0.08-0.62-0.25c-0.15-0.17-0.23-0.37-0.23-0.61v-24.48    c0-0.24,0.08-0.44,0.23-0.61c0.15-0.17,0.36-0.25,0.62-0.25h5.38c0.24,0,0.44,0.08,0.61,0.25c0.17,0.17,0.25,0.37,0.25,0.61v24.48    c0,0.24-0.08,0.44-0.25,0.61C700.25,294.86,700.05,294.94,699.81,294.94z"></path>		<path class="st4" d="M706.65,285.95c1.29,0.84,2.57,1.49,3.83,1.97c1.27,0.48,2.45,0.72,3.55,0.72c1.05,0,1.85-0.15,2.4-0.45    c0.55-0.3,0.82-0.75,0.82-1.34c0-0.31-0.12-0.55-0.36-0.73c-0.24-0.18-0.56-0.33-0.95-0.45c-0.39-0.12-0.85-0.21-1.38-0.29    c-0.53-0.07-1.06-0.17-1.61-0.29c-0.53-0.1-1.14-0.21-1.85-0.34c-0.7-0.13-1.43-0.32-2.17-0.57c-0.74-0.25-1.48-0.57-2.2-0.95    c-0.73-0.38-1.38-0.87-1.95-1.47c-0.57-0.6-1.03-1.31-1.38-2.13c-0.35-0.82-0.52-1.8-0.52-2.92c0-1.65,0.32-3.01,0.97-4.08    c0.64-1.08,1.46-1.93,2.45-2.56c0.99-0.63,2.1-1.07,3.32-1.33c1.22-0.25,2.4-0.38,3.55-0.38c2.01,0,3.8,0.29,5.39,0.88    c1.59,0.59,3.11,1.44,4.57,2.56c0.19,0.17,0.3,0.37,0.32,0.61c0.02,0.24-0.04,0.45-0.18,0.64l-2.79,3.98    c-0.14,0.19-0.34,0.31-0.57,0.36c-0.24,0.05-0.45,0-0.64-0.14c-1.22-0.76-2.35-1.31-3.4-1.63c-1.05-0.32-2.02-0.48-2.9-0.48    c-0.26,0-0.57,0.01-0.91,0.02c-0.35,0.01-0.68,0.06-0.99,0.14c-0.31,0.08-0.57,0.22-0.77,0.41s-0.3,0.45-0.3,0.79    c0,0.33,0.25,0.63,0.75,0.9c0.5,0.26,1.07,0.49,1.72,0.68c0.64,0.19,1.27,0.34,1.86,0.45c0.6,0.11,0.98,0.17,1.15,0.2    c0.86,0.17,1.8,0.41,2.83,0.73c1.03,0.32,1.99,0.8,2.89,1.43c0.9,0.63,1.65,1.46,2.26,2.47c0.61,1.02,0.91,2.29,0.91,3.82    c0,1.43-0.25,2.67-0.75,3.71c-0.5,1.04-1.2,1.89-2.1,2.56c-0.9,0.67-1.97,1.17-3.23,1.49c-1.25,0.32-2.65,0.48-4.17,0.48    c-1.24,0-2.4-0.1-3.48-0.3c-1.08-0.2-2.08-0.48-3.01-0.84c-0.93-0.36-1.8-0.78-2.6-1.27c-0.8-0.49-1.53-1.01-2.2-1.56    c-0.19-0.14-0.3-0.34-0.32-0.59c-0.02-0.25,0.04-0.47,0.18-0.66l2.76-3.98c0.14-0.19,0.34-0.31,0.57-0.36    C706.24,285.79,706.46,285.83,706.65,285.95z"></path>		<path class="st4" d="M751.59,287.99c-0.69,1.12-1.46,2.14-2.29,3.05c-0.84,0.92-1.77,1.69-2.81,2.34    c-1.04,0.64-2.19,1.14-3.46,1.5c-1.27,0.36-2.66,0.54-4.19,0.54c-1.91,0-3.7-0.36-5.38-1.08c-1.67-0.72-3.14-1.68-4.39-2.9    c-1.26-1.22-2.24-2.65-2.96-4.3c-0.72-1.65-1.08-3.4-1.08-5.27s0.36-3.62,1.08-5.27c0.72-1.65,1.7-3.08,2.96-4.3    c1.25-1.22,2.72-2.19,4.39-2.9c1.67-0.72,3.46-1.08,5.38-1.08c1.58,0,3,0.18,4.26,0.54c1.27,0.36,2.41,0.86,3.44,1.5    c1.03,0.65,1.95,1.43,2.78,2.35c0.82,0.92,1.58,1.93,2.27,3.03c0.12,0.19,0.14,0.39,0.07,0.61c-0.07,0.22-0.21,0.37-0.43,0.47    l-5.09,2.01c-0.24,0.1-0.48,0.1-0.72,0c-0.24-0.1-0.42-0.24-0.54-0.43c-0.69-1.1-1.53-1.94-2.51-2.53    c-0.98-0.59-2.16-0.88-3.55-0.88c-0.91,0-1.76,0.19-2.56,0.58c-0.8,0.38-1.5,0.89-2.1,1.53c-0.6,0.63-1.06,1.37-1.4,2.21    c-0.33,0.84-0.5,1.7-0.5,2.59c0,0.91,0.17,1.78,0.5,2.6c0.34,0.83,0.8,1.55,1.4,2.17c0.6,0.62,1.3,1.13,2.1,1.51    c0.8,0.38,1.65,0.58,2.56,0.58c1.31,0,2.5-0.32,3.57-0.95c1.06-0.63,1.91-1.45,2.53-2.45c0.12-0.19,0.29-0.33,0.52-0.43    c0.23-0.1,0.46-0.1,0.7,0l5.09,2.01c0.21,0.1,0.36,0.24,0.43,0.45C751.73,287.57,751.71,287.78,751.59,287.99z"></path>		<path class="st4" d="M759.01,294.94h-5.38c-0.26,0-0.47-0.08-0.62-0.25c-0.15-0.17-0.23-0.37-0.23-0.61v-24.48    c0-0.24,0.08-0.44,0.23-0.61c0.15-0.17,0.36-0.25,0.62-0.25h5.38c0.24,0,0.44,0.08,0.61,0.25c0.17,0.17,0.25,0.37,0.25,0.61v24.48    c0,0.24-0.08,0.44-0.25,0.61C759.45,294.86,759.25,294.94,759.01,294.94z"></path>		<path class="st4" d="M787.53,269.57v24.51c0,0.24-0.08,0.44-0.25,0.61c-0.17,0.17-0.37,0.25-0.61,0.25h-5.29    c-0.24,0-0.49-0.07-0.75-0.21c-0.26-0.14-0.46-0.31-0.61-0.5l-9.33-13.15c-0.14-0.19-0.29-0.27-0.45-0.23s-0.23,0.17-0.23,0.41    v12.83c0,0.24-0.08,0.44-0.25,0.61c-0.17,0.17-0.37,0.25-0.61,0.25h-5.37c-0.24,0-0.44-0.08-0.61-0.25    c-0.17-0.17-0.25-0.37-0.25-0.61v-24.51c0-0.24,0.08-0.44,0.25-0.61c0.17-0.17,0.37-0.25,0.61-0.25h5.38    c0.24,0,0.49,0.07,0.75,0.2c0.26,0.13,0.47,0.29,0.61,0.48l9.32,13.15c0.14,0.19,0.29,0.28,0.45,0.25    c0.15-0.02,0.23-0.15,0.23-0.39v-12.83c0-0.24,0.08-0.44,0.25-0.61c0.17-0.17,0.37-0.25,0.61-0.25h5.3c0.24,0,0.44,0.08,0.61,0.25    C787.45,269.13,787.53,269.33,787.53,269.57z"></path>		<path class="st4" d="M798.85,269.54c0.1-0.21,0.26-0.4,0.48-0.55c0.23-0.16,0.47-0.23,0.73-0.23h5.02c0.24,0,0.47,0.08,0.7,0.23    c0.23,0.16,0.39,0.34,0.48,0.55l10.46,24.37c0.1,0.21,0.08,0.44-0.05,0.68c-0.13,0.24-0.39,0.36-0.77,0.36h-6.13    c-0.26,0-0.51-0.08-0.73-0.23c-0.23-0.16-0.4-0.34-0.52-0.56l-0.97-2.15c-0.12-0.21-0.29-0.4-0.52-0.55    c-0.23-0.16-0.46-0.23-0.7-0.23h-7.56c-0.26,0-0.51,0.08-0.73,0.23c-0.23,0.15-0.39,0.34-0.48,0.55l-1,2.15    c-0.1,0.21-0.26,0.4-0.48,0.56c-0.23,0.15-0.46,0.23-0.7,0.23h-6.16c-0.12,0-0.24-0.02-0.38-0.07c-0.13-0.05-0.24-0.12-0.32-0.21    c-0.08-0.1-0.14-0.21-0.16-0.36c-0.02-0.14,0.01-0.31,0.11-0.5L798.85,269.54z M800.97,285.12h3.19c0.24,0,0.41-0.08,0.52-0.23    s0.1-0.34-0.02-0.56c-0.24-0.6-0.53-1.29-0.86-2.1c-0.33-0.8-0.64-1.55-0.93-2.24c-0.1-0.22-0.2-0.32-0.32-0.32    c-0.12,0-0.23,0.11-0.32,0.32l-1.79,4.33c-0.1,0.21-0.1,0.4,0,0.56S800.7,285.12,800.97,285.12z"></path>		<path class="st4" d="M819.6,285.95c1.29,0.84,2.57,1.49,3.83,1.97c1.27,0.48,2.45,0.72,3.55,0.72c1.05,0,1.85-0.15,2.4-0.45    c0.55-0.3,0.82-0.75,0.82-1.34c0-0.31-0.12-0.55-0.36-0.73c-0.24-0.18-0.56-0.33-0.95-0.45c-0.39-0.12-0.85-0.21-1.38-0.29    c-0.53-0.07-1.06-0.17-1.61-0.29c-0.53-0.1-1.14-0.21-1.85-0.34c-0.7-0.13-1.43-0.32-2.17-0.57c-0.74-0.25-1.48-0.57-2.2-0.95    c-0.73-0.38-1.38-0.87-1.95-1.47c-0.57-0.6-1.03-1.31-1.38-2.13c-0.35-0.82-0.52-1.8-0.52-2.92c0-1.65,0.32-3.01,0.97-4.08    c0.64-1.08,1.46-1.93,2.45-2.56c0.99-0.63,2.1-1.07,3.32-1.33c1.22-0.25,2.4-0.38,3.55-0.38c2.01,0,3.8,0.29,5.39,0.88    c1.59,0.59,3.11,1.44,4.57,2.56c0.19,0.17,0.3,0.37,0.32,0.61c0.02,0.24-0.04,0.45-0.18,0.64l-2.79,3.98    c-0.14,0.19-0.34,0.31-0.57,0.36c-0.24,0.05-0.45,0-0.64-0.14c-1.22-0.76-2.35-1.31-3.4-1.63c-1.05-0.32-2.02-0.48-2.9-0.48    c-0.26,0-0.57,0.01-0.91,0.02c-0.35,0.01-0.68,0.06-0.99,0.14c-0.31,0.08-0.57,0.22-0.77,0.41s-0.3,0.45-0.3,0.79    c0,0.33,0.25,0.63,0.75,0.9c0.5,0.26,1.07,0.49,1.72,0.68c0.64,0.19,1.27,0.34,1.86,0.45c0.6,0.11,0.98,0.17,1.15,0.2    c0.86,0.17,1.8,0.41,2.83,0.73s1.99,0.8,2.89,1.43c0.9,0.63,1.65,1.46,2.26,2.47c0.61,1.02,0.91,2.29,0.91,3.82    c0,1.43-0.25,2.67-0.75,3.71c-0.5,1.04-1.2,1.89-2.1,2.56c-0.9,0.67-1.97,1.17-3.23,1.49c-1.25,0.32-2.65,0.48-4.17,0.48    c-1.24,0-2.4-0.1-3.48-0.3c-1.08-0.2-2.08-0.48-3.01-0.84c-0.93-0.36-1.8-0.78-2.6-1.27c-0.8-0.49-1.53-1.01-2.2-1.56    c-0.19-0.14-0.3-0.34-0.32-0.59c-0.02-0.25,0.04-0.47,0.18-0.66l2.76-3.98c0.14-0.19,0.34-0.31,0.57-0.36    C819.19,285.79,819.41,285.83,819.6,285.95z"></path>		<path class="st4" d="M849.74,294.08v-24.51c0-0.24,0.08-0.44,0.25-0.61c0.17-0.17,0.37-0.25,0.61-0.25h9.78    c3.75,0,6.82,1.1,9.21,3.3c1.29,1.19,2.27,2.62,2.94,4.26c0.67,1.65,1,3.5,1,5.55c0,2.05-0.34,3.91-1,5.57    c-0.67,1.66-1.65,3.09-2.94,4.28c-1.19,1.07-2.56,1.89-4.1,2.44c-1.54,0.55-3.24,0.82-5.11,0.82h-9.78    c-0.24,0-0.44-0.08-0.61-0.25C849.82,294.52,849.74,294.32,849.74,294.08z M857.69,288.35h2.69c0.67,0,1.36-0.08,2.08-0.25    c0.72-0.17,1.36-0.48,1.93-0.95c0.57-0.46,1.04-1.12,1.42-1.97c0.37-0.85,0.56-1.95,0.56-3.32c0-1.36-0.19-2.47-0.56-3.32    c-0.37-0.85-0.85-1.51-1.43-1.97c-0.59-0.47-1.23-0.78-1.93-0.95c-0.7-0.17-1.39-0.25-2.06-0.25h-2.69    c-0.24,0-0.44,0.08-0.61,0.25c-0.17,0.17-0.25,0.37-0.25,0.61v11.25c0,0.24,0.08,0.44,0.25,0.61    C857.25,288.27,857.45,288.35,857.69,288.35z"></path>		<path class="st4" d="M881.99,276.17v1.51c0,0.24,0.08,0.44,0.25,0.61c0.17,0.17,0.37,0.25,0.61,0.25h9.71    c0.24,0,0.44,0.08,0.61,0.25c0.17,0.17,0.25,0.37,0.25,0.61v4.94c0,0.24-0.09,0.44-0.25,0.61c-0.17,0.17-0.37,0.25-0.61,0.25    h-9.71c-0.24,0-0.44,0.08-0.61,0.25c-0.17,0.17-0.25,0.37-0.25,0.61v1.36c0,0.24,0.08,0.44,0.25,0.61    c0.17,0.17,0.37,0.25,0.61,0.25h11.14c0.24,0,0.44,0.08,0.61,0.25c0.17,0.17,0.25,0.37,0.25,0.61v4.95c0,0.24-0.08,0.44-0.25,0.61    c-0.17,0.17-0.37,0.25-0.61,0.25h-18.24c-0.24,0-0.44-0.08-0.61-0.25c-0.17-0.17-0.25-0.37-0.25-0.61v-24.51    c0-0.24,0.08-0.44,0.25-0.61c0.17-0.17,0.37-0.25,0.61-0.25h18.24c0.24,0,0.44,0.08,0.61,0.25c0.17,0.17,0.25,0.37,0.25,0.61v4.87    c0,0.24-0.08,0.44-0.25,0.61c-0.17,0.17-0.37,0.25-0.61,0.25h-11.14c-0.24,0-0.44,0.08-0.61,0.25    C882.07,275.72,881.99,275.93,881.99,276.17z"></path>		<path class="st4" d="M915.14,276.23v1.49c0,0.24,0.08,0.44,0.25,0.6c0.17,0.16,0.37,0.25,0.61,0.25h9.68    c0.24,0,0.44,0.08,0.61,0.25c0.17,0.17,0.25,0.37,0.25,0.61v5.02c0,0.24-0.08,0.44-0.25,0.61c-0.17,0.17-0.37,0.25-0.61,0.25    h-9.68c-0.24,0-0.44,0.08-0.61,0.25c-0.17,0.17-0.25,0.37-0.25,0.61v7.92c0,0.24-0.08,0.44-0.25,0.61    c-0.17,0.17-0.37,0.25-0.61,0.25h-5.38c-0.24,0-0.44-0.08-0.61-0.25c-0.17-0.17-0.25-0.37-0.25-0.61v-24.51    c0-0.24,0.08-0.44,0.25-0.61c0.17-0.17,0.37-0.25,0.61-0.25h18.21c0.24,0,0.44,0.09,0.61,0.25c0.17,0.17,0.25,0.37,0.25,0.61v4.94    c0,0.24-0.08,0.45-0.25,0.61c-0.17,0.17-0.37,0.25-0.61,0.25h-11.11c-0.24,0-0.44,0.08-0.61,0.25    C915.22,275.79,915.14,275.99,915.14,276.23z"></path>		<path class="st4" d="M936.17,294.94h-5.38c-0.26,0-0.47-0.08-0.62-0.25c-0.15-0.17-0.23-0.37-0.23-0.61v-24.48    c0-0.24,0.08-0.44,0.23-0.61c0.15-0.17,0.36-0.25,0.62-0.25h5.38c0.24,0,0.44,0.08,0.61,0.25c0.17,0.17,0.25,0.37,0.25,0.61v24.48    c0,0.24-0.08,0.44-0.25,0.61C936.61,294.86,936.41,294.94,936.17,294.94z"></path>		<path class="st4" d="M957.99,281.43c0.38,0.21,0.77,0.48,1.15,0.79c0.38,0.31,0.73,0.69,1.06,1.15c0.32,0.45,0.59,0.98,0.79,1.58    c0.2,0.6,0.3,1.28,0.3,2.04c0,1.55-0.25,2.84-0.73,3.85c-0.49,1.02-1.15,1.83-1.99,2.44c-0.84,0.61-1.8,1.04-2.89,1.29    c-1.09,0.25-2.23,0.38-3.42,0.38H940.9c-0.24,0-0.44-0.08-0.61-0.25c-0.17-0.17-0.25-0.37-0.25-0.61v-24.51    c0-0.24,0.08-0.44,0.25-0.61c0.17-0.17,0.37-0.25,0.61-0.25h10.82c1.15,0,2.25,0.13,3.3,0.38c1.05,0.25,1.98,0.66,2.78,1.24    s1.44,1.32,1.93,2.24s0.74,2.05,0.74,3.39c0,1.07-0.27,2.01-0.81,2.79c-0.54,0.79-1.12,1.41-1.74,1.86    C957.49,280.92,957.51,281.2,957.99,281.43z M948,278.67h3.33c0.48,0,0.86-0.18,1.15-0.55c0.29-0.37,0.43-0.78,0.43-1.24    c0-0.43-0.17-0.8-0.52-1.11c-0.35-0.31-0.68-0.47-0.99-0.47H948c-0.24,0-0.44,0.08-0.61,0.25c-0.17,0.17-0.25,0.37-0.25,0.61v1.65    c0,0.24,0.08,0.44,0.25,0.61C947.55,278.59,947.76,278.67,948,278.67z M951.76,284.59H948c-0.24,0-0.44,0.08-0.61,0.25    c-0.17,0.17-0.25,0.37-0.25,0.61v2.04c0,0.24,0.08,0.44,0.25,0.61c0.17,0.17,0.37,0.25,0.61,0.25h4.01c0.43,0,0.84-0.18,1.22-0.54    c0.38-0.36,0.57-0.78,0.57-1.26c0-0.43-0.19-0.87-0.56-1.31C952.87,284.81,952.38,284.59,951.76,284.59z"></path>		<path class="st4" d="M969.63,294.94h-5.37c-0.24,0-0.44-0.08-0.61-0.25c-0.17-0.17-0.25-0.37-0.25-0.61v-24.51    c0-0.24,0.08-0.44,0.25-0.61c0.17-0.17,0.37-0.25,0.61-0.25h11.14c1.38,0,2.66,0.23,3.83,0.7c1.17,0.47,2.17,1.12,2.99,1.95    c0.82,0.84,1.47,1.83,1.93,2.98c0.47,1.15,0.7,2.41,0.7,3.8c0,0.77-0.09,1.52-0.27,2.28c-0.18,0.75-0.44,1.46-0.77,2.13    c-0.34,0.67-0.73,1.27-1.18,1.81c-0.45,0.54-0.97,0.98-1.54,1.34c-0.19,0.14-0.32,0.32-0.38,0.52c-0.06,0.2-0.02,0.4,0.13,0.59    c0.91,1.19,1.86,2.42,2.87,3.69c1,1.27,1.9,2.42,2.69,3.48c0.14,0.19,0.18,0.4,0.11,0.63c-0.07,0.23-0.23,0.34-0.46,0.34h-6.67    c-0.24,0-0.5-0.07-0.77-0.2c-0.28-0.13-0.48-0.29-0.63-0.48c-0.76-1-1.52-2.02-2.26-3.05c-0.75-1.03-1.49-2.07-2.23-3.12    c-0.14-0.19-0.34-0.35-0.61-0.48c-0.26-0.13-0.51-0.2-0.75-0.2h-0.78c-0.24,0-0.44,0.08-0.61,0.25c-0.17,0.17-0.25,0.37-0.25,0.61    v5.81c0,0.24-0.08,0.44-0.25,0.61C970.08,294.86,969.87,294.94,969.63,294.94z M971.35,280.82h3.78c0.29,0,0.58-0.05,0.89-0.16    c0.31-0.11,0.59-0.27,0.85-0.5c0.26-0.23,0.48-0.51,0.64-0.84c0.17-0.33,0.25-0.73,0.25-1.18c0-0.24-0.04-0.52-0.13-0.84    c-0.08-0.32-0.23-0.63-0.43-0.93c-0.2-0.3-0.48-0.55-0.82-0.75c-0.34-0.2-0.77-0.3-1.27-0.3h-3.78c-0.24,0-0.44,0.08-0.61,0.25    c-0.17,0.17-0.25,0.37-0.25,0.61v3.8c0,0.24,0.08,0.44,0.25,0.61C970.91,280.74,971.12,280.82,971.35,280.82z"></path>		<path class="st4" d="M995.65,269.54c0.1-0.21,0.26-0.4,0.48-0.55s0.47-0.23,0.73-0.23h5.02c0.24,0,0.47,0.08,0.7,0.23    c0.23,0.16,0.39,0.34,0.48,0.55l10.46,24.37c0.1,0.21,0.08,0.44-0.05,0.68c-0.13,0.24-0.39,0.36-0.77,0.36h-6.13    c-0.26,0-0.51-0.08-0.73-0.23c-0.23-0.16-0.4-0.34-0.52-0.56l-0.97-2.15c-0.12-0.21-0.29-0.4-0.52-0.55    c-0.23-0.16-0.46-0.23-0.7-0.23h-7.56c-0.26,0-0.51,0.08-0.73,0.23c-0.23,0.15-0.39,0.34-0.48,0.55l-1,2.15    c-0.1,0.21-0.26,0.4-0.48,0.56c-0.23,0.15-0.46,0.23-0.7,0.23h-6.16c-0.12,0-0.24-0.02-0.38-0.07c-0.13-0.05-0.24-0.12-0.32-0.21    c-0.08-0.1-0.14-0.21-0.16-0.36c-0.02-0.14,0.01-0.31,0.11-0.5L995.65,269.54z M997.77,285.12h3.19c0.24,0,0.41-0.08,0.52-0.23    s0.1-0.34-0.02-0.56c-0.24-0.6-0.53-1.29-0.86-2.1c-0.33-0.8-0.64-1.55-0.93-2.24c-0.1-0.22-0.2-0.32-0.32-0.32    c-0.12,0-0.23,0.11-0.32,0.32l-1.79,4.33c-0.1,0.21-0.1,0.4,0,0.56S997.5,285.12,997.77,285.12z"></path>	</g></g></svg>