<svg xmlns="http://www.w3.org/2000/svg" xmlns:xlink="http://www.w3.org/1999/xlink" id="Capa_1" x="0px" y="0px" viewBox="0 0 1991.8 567.65" style="enable-background:new 0 0 1991.8 567.65;" xml:space="preserve"><style type="text/css">	.st0{fill:#FFFFFF;}</style><g>	<g>		<path class="st0" d="M283.18,122.4c-1.73-1.73-3.88-2.62-6.36-2.62H86.73c-2.48,0-4.59,0.88-6.33,2.62s-2.62,3.88-2.62,6.36   v255.91c0,2.48,0.88,4.63,2.62,6.36c1.73,1.73,3.84,2.62,6.33,2.62h56.22c2.45,0,4.56-0.88,6.29-2.62   c1.77-1.73,2.62-3.88,2.62-6.36v-82.68c0-2.48,0.88-4.63,2.62-6.36c1.73-1.73,3.88-2.62,6.36-2.62h101.02   c2.48,0,4.63-0.88,6.36-2.62c0.31-0.31,0.58-0.61,0.82-0.95c1.19-1.53,1.8-3.37,1.8-5.41v-52.38c0-2.48-0.88-4.63-2.62-6.36   c-1.73-1.73-3.88-2.62-6.36-2.62H160.84c-2.48,0-4.63-0.85-6.36-2.58c-1.73-1.73-2.62-3.84-2.62-6.29v-15.54   c0-2.48,0.88-4.56,2.62-6.29c1.73-1.73,3.88-2.58,6.36-2.58h115.98c2.48,0,4.63-0.88,6.36-2.65c1.73-1.73,2.62-3.88,2.62-6.39   V128.8C285.8,126.31,284.92,124.17,283.18,122.4z"></path>		<path class="st0" d="M377.84,122.78c-1.73-1.73-3.84-2.62-6.33-2.62h-56.19c-2.76,0-4.9,0.88-6.53,2.62   c-1.6,1.73-2.41,3.88-2.41,6.36v255.54c0,2.48,0.82,4.63,2.41,6.36c1.63,1.73,3.78,2.62,6.53,2.62h56.19   c2.48,0,4.59-0.88,6.33-2.62c1.73-1.73,2.62-3.88,2.62-6.36V129.14C380.46,126.65,379.58,124.51,377.84,122.78z"></path>		<path class="st0" d="M630.59,289.27c-1.67-4.83-3.67-9.22-6.09-13.16c-0.68-1.12-1.39-2.24-2.14-3.3   c-3.37-4.73-7.07-8.74-11.05-11.97c-3.98-3.23-7.99-5.99-11.97-8.23c-5-2.48-5.24-5.37-0.75-8.61   c6.5-4.73,12.55-11.22,18.16-19.46c5.61-8.23,8.4-17.96,8.4-29.18c0-13.98-2.55-25.75-7.65-35.37   c-5.14-9.59-11.87-17.38-20.2-23.37c-8.37-5.99-18.03-10.31-29.01-12.92c-10.99-2.62-22.45-3.91-34.42-3.91H420.87   c-2.48,0-4.63,0.88-6.36,2.62c-1.73,1.73-2.62,3.88-2.62,6.36v255.91c0,2.48,0.88,4.63,2.62,6.36c1.73,1.73,3.88,2.62,6.36,2.62   h118.6c12.48,0,24.39-1.33,35.75-3.95c11.33-2.62,21.36-7.11,30.1-13.47c8.74-6.36,15.65-14.83,20.78-25.44   c5.1-10.58,7.65-23.98,7.65-40.2C633.75,302.6,632.7,295.49,630.59,289.27z M485.97,197.6c0-2.48,0.88-4.63,2.62-6.36   c1.73-1.73,3.88-2.62,6.36-2.62h35.54c3.23,0,6.67,1.63,10.31,4.86c3.61,3.23,5.41,7.11,5.41,11.6c0,4.73-1.5,9.05-4.49,12.89   c-2.99,3.88-6.97,5.82-11.97,5.82h-34.79c-2.48,0-4.63-0.88-6.36-2.62c-1.73-1.73-2.62-3.88-2.62-6.36V197.6z M549.57,319.2   c-3.98,3.74-8.23,5.61-12.72,5.61h-41.9c-2.48,0-4.63-0.88-6.36-2.62c-1.73-1.73-2.62-3.88-2.62-6.36v-21.33   c0-2.48,0.88-4.63,2.62-6.36c1.73-1.73,3.88-2.62,6.36-2.62h39.28c6.5,0,11.67,2.31,15.54,6.9c3.84,4.63,5.78,9.18,5.78,13.67   C555.56,311.1,553.55,315.46,549.57,319.2z"></path>		<path class="st0" d="M896.02,383.55c-8.23-10.99-17.58-23.06-28.06-36.29c-10.48-13.23-20.44-26.05-29.93-38.54   c-1.5-2.01-1.94-4.05-1.33-6.19c0.65-2.11,1.94-3.91,3.95-5.41c5.99-3.74,11.36-8.44,16.09-14.05c4.73-5.61,8.84-11.9,12.35-18.88   c0.07-0.14,0.14-0.27,0.2-0.41c3.4-6.84,5.99-14.15,7.82-21.87c1.87-7.86,2.82-15.75,2.82-23.74c0-14.46-2.45-27.69-7.31-39.66   c-4.86-11.97-11.6-22.31-20.17-31.05c-8.64-8.74-19.05-15.54-31.26-20.41c-12.21-4.86-25.58-7.28-40.03-7.28H664.8   c-2.48,0-4.63,0.88-6.36,2.62s-2.62,3.88-2.62,6.36v255.91c0,2.48,0.88,4.63,2.62,6.36c1.77,1.73,3.91,2.62,6.39,2.62h56.05   c2.48,0,4.63-0.88,6.36-2.62c1.77-1.73,2.65-3.88,2.65-6.36v-60.61c0-2.48,0.85-4.63,2.62-6.36c1.73-1.73,3.84-2.62,6.33-2.62   h8.16c2.48,0,5.1,0.68,7.82,2.04c2.76,1.39,4.86,3.06,6.33,5.07c7.72,10.99,15.48,21.84,23.3,32.55   c7.82,10.71,15.68,21.33,23.64,31.8c1.5,2.01,3.67,3.67,6.53,5.03c2.89,1.39,5.54,2.07,8.06,2.07h69.59   c2.48,0,4.12-1.19,4.86-3.57C897.89,387.73,897.52,385.56,896.02,383.55z M729.9,197.6c0-2.48,0.85-4.63,2.62-6.36   c1.73-1.73,3.84-2.62,6.33-2.62h39.45c5.2,0,9.63,1.05,13.23,3.16c3.57,2.14,6.43,4.76,8.54,7.86c2.11,3.13,3.61,6.36,4.49,9.73   c0.85,3.37,1.29,6.33,1.29,8.81c0,4.73-0.88,8.84-2.62,12.35c-1.73,3.5-3.98,6.43-6.7,8.78c-2.72,2.38-5.71,4.12-8.91,5.24   c-3.23,1.12-6.36,1.7-9.32,1.7h-39.45c-2.48,0-4.59-0.88-6.33-2.62c-1.77-1.73-2.62-3.88-2.62-6.36V197.6z"></path>		<path class="st0" d="M1177.07,247.6c-0.95-16.09-4.63-31.39-10.92-45.88c-7.48-17.21-17.65-32.24-30.51-45.1   c-12.82-12.82-27.86-22.99-45.07-30.48c-17.21-7.48-35.54-11.22-55-11.22c-19.46,0-37.79,3.74-55,11.22   c-17.21,7.48-32.18,17.65-44.9,30.48c-12.72,12.86-22.82,27.89-30.31,45.1c-7.48,17.21-11.22,35.54-11.22,55   c0,1.94,0.03,3.88,0.1,5.78c0.68,17.31,4.39,33.71,11.12,49.22c7.48,17.21,17.58,32.24,30.31,45.07   c12.72,12.86,27.69,23.03,44.9,30.51c17.21,7.48,35.54,11.22,55,11.22c19.46,0,37.79-3.74,55-11.22   c17.21-7.48,32.24-17.65,45.07-30.51c12.86-12.82,23.03-27.86,30.51-45.07s11.22-35.54,11.22-55   C1177.37,253.66,1177.27,250.6,1177.07,247.6z M1098.06,283.66c-3.5,8.47-8.37,15.95-14.59,22.45   c-6.26,6.5-13.47,11.67-21.7,15.51c-8.23,3.88-16.97,5.82-26.19,5.82c-9.25,0-17.96-1.94-26.19-5.82   c-8.23-3.84-15.41-9.01-21.53-15.51c-6.12-6.5-10.92-13.98-14.39-22.45c-3.27-7.92-5-16.29-5.2-25.1   c-0.03-0.61-0.03-1.22-0.03-1.84c0-9.22,1.73-18.16,5.24-26.77c3.47-8.61,8.27-16.09,14.39-22.45   c6.12-6.36,13.3-11.46,21.53-15.34c8.23-3.84,16.94-5.78,26.19-5.78c9.22,0,17.96,1.94,26.19,5.78   c8.23,3.88,15.44,8.98,21.7,15.34c6.22,6.36,11.09,13.84,14.59,22.45c2.79,6.94,4.49,14.12,5.03,21.46   c0.14,1.77,0.2,3.54,0.2,5.31C1103.29,266.21,1101.53,275.19,1098.06,283.66z"></path>		<path class="st0" d="M1398.86,327.43c-1.77-1.73-3.88-2.62-6.36-2.62h-112.62c-2.76,0-4.93-0.88-6.56-2.62   c-1.63-1.73-2.42-3.88-2.42-6.36V128.76c0-2.48-0.88-4.63-2.62-6.36c-1.77-1.73-3.88-2.62-6.36-2.62h-56.12   c-2.76,0-4.93,0.88-6.56,2.62s-2.41,3.88-2.41,6.36v255.91c0,2.48,0.78,4.63,2.41,6.36c1.63,1.73,3.81,2.62,6.56,2.62h186.69   c0.82,0,1.63-0.1,2.38-0.31c1.46-0.37,2.79-1.16,3.98-2.31c1.73-1.73,2.62-3.88,2.62-6.36v-50.88   C1401.48,331.31,1400.6,329.16,1398.86,327.43z"></path>		<path class="st0" d="M1684.7,382.8l-66.09-153.84l-43.2-100.57c-0.99-2.24-2.69-4.18-5.03-5.82c-2.38-1.6-4.8-2.41-7.28-2.41   h-52.41c-2.72,0-5.27,0.82-7.65,2.41c-2.38,1.63-4.05,3.57-5.07,5.82l-45.61,106.46l-50.88,118.81l-12.01,28.03   c-0.99,2.01-1.36,3.74-1.12,5.24c0.27,1.5,0.82,2.76,1.7,3.74c0.88,0.99,2.01,1.73,3.37,2.24c0.48,0.17,0.99,0.34,1.46,0.44   c0.85,0.2,1.67,0.31,2.45,0.31h64.35c2.52,0,4.93-0.82,7.31-2.45c2.38-1.6,4.05-3.54,5.07-5.78l10.48-22.45   c0.99-2.24,2.65-4.18,5.03-5.82c2.38-1.6,4.93-2.41,7.69-2.41h78.91c2.52,0,4.93,0.82,7.31,2.41c2.38,1.63,4.18,3.57,5.44,5.82   l10.1,22.45c1.22,2.24,3.03,4.18,5.41,5.78c2.38,1.63,4.93,2.45,7.69,2.45h63.94c4.01,0,6.7-1.26,8.06-3.74   C1685.49,387.43,1685.69,385.05,1684.7,382.8z M1558.79,288.69c-1.12,1.63-2.93,2.45-5.41,2.45h-33.33   c-2.72,0-4.59-0.82-5.61-2.45c-0.99-1.6-0.99-3.54,0-5.78l18.71-45.27c1.02-2.24,2.14-3.37,3.37-3.37c1.26,0,2.38,1.12,3.37,3.37   c3.03,7.24,6.26,15.03,9.73,23.37c3.5,8.37,6.5,15.68,8.98,21.9C1559.84,285.15,1559.91,287.09,1558.79,288.69z"></path>		<path class="st0" d="M1910.85,289.27c-2.14-6.22-4.86-11.73-8.23-16.46c-3.37-4.73-7.04-8.74-11.05-11.97   c-3.98-3.23-7.96-5.99-11.97-8.23c-4.97-2.48-5.24-5.37-0.75-8.61c6.5-4.73,12.55-11.22,18.16-19.46c0.14-0.2,0.27-0.41,0.37-0.61   c5.37-8.1,8.03-17.62,8.03-28.57c0-13.98-2.55-25.75-7.65-35.37c-5.14-9.59-11.84-17.38-20.2-23.37   c-8.37-5.99-18.03-10.31-29.01-12.92c-10.95-2.62-22.45-3.91-34.42-3.91h-112.99c-2.48,0-4.59,0.88-6.36,2.62   c-1.73,1.73-2.62,3.88-2.62,6.36v255.91c0,2.48,0.88,4.63,2.62,6.36c1.77,1.73,3.88,2.62,6.36,2.62h118.6   c12.48,0,24.39-1.33,35.75-3.95c11.33-2.62,21.39-7.11,30.1-13.47c8.74-6.36,15.68-14.83,20.78-25.44   c5.1-10.58,7.65-23.98,7.65-40.2C1914.02,302.6,1912.96,295.49,1910.85,289.27z M1766.23,197.6c0-2.48,0.88-4.63,2.62-6.36   c1.73-1.73,3.88-2.62,6.36-2.62h35.54c3.23,0,6.67,1.63,10.31,4.86c3.61,3.23,5.41,7.11,5.41,11.6c0,4.73-1.5,9.05-4.49,12.89   c-2.99,3.88-6.97,5.82-11.97,5.82h-34.79c-2.48,0-4.63-0.88-6.36-2.62c-1.73-1.73-2.62-3.88-2.62-6.36V197.6z M1829.84,319.2   c-3.98,3.74-8.23,5.61-12.72,5.61h-41.9c-2.48,0-4.63-0.88-6.36-2.62c-1.73-1.73-2.62-3.88-2.62-6.36v-21.33   c0-2.48,0.88-4.63,2.62-6.36c1.73-1.73,3.88-2.62,6.36-2.62h39.28c6.5,0,11.67,2.31,15.54,6.9c3.84,4.63,5.78,9.18,5.78,13.67   C1835.82,311.1,1833.82,315.46,1829.84,319.2z"></path>	</g>			<ellipse transform="matrix(0.9239 -0.3827 0.3827 0.9239 2.8851 136.0471)" class="st0" cx="343.42" cy="60.77" rx="38.6" ry="38.6"></ellipse>	<g>		<path class="st0" d="M540.04,487.82c-1.04-1.06-2.24-1.9-3.6-2.54c-1.36-0.64-2.81-0.96-4.34-0.96c-1.53,0-2.98,0.32-4.35,0.96   c-1.37,0.64-2.56,1.49-3.57,2.54c-1.01,1.06-1.81,2.3-2.39,3.72c-0.58,1.43-0.87,2.91-0.87,4.44c0,1.57,0.29,3.06,0.87,4.47   c0.58,1.41,1.38,2.65,2.39,3.72c1.01,1.08,2.2,1.93,3.57,2.58c1.37,0.64,2.81,0.96,4.35,0.96c1.53,0,2.98-0.32,4.34-0.96   c1.37-0.64,2.57-1.5,3.6-2.58c1.04-1.08,1.84-2.32,2.42-3.72c0.58-1.41,0.87-2.9,0.87-4.47c0-1.53-0.29-3.01-0.87-4.44   C541.88,490.12,541.07,488.87,540.04,487.82z"></path>		<path class="st0" d="M1243.69,486.35c-0.46-0.49-1.02-0.89-1.69-1.2c-0.67-0.31-1.44-0.46-2.31-0.46h-5.87   c-0.42,0-0.77,0.15-1.06,0.43c-0.29,0.29-0.44,0.64-0.44,1.05v7.28c0,0.41,0.15,0.76,0.44,1.05c0.29,0.29,0.65,0.43,1.06,0.43   h6.68c1.58,0,2.73-0.5,3.46-1.51c0.73-1.01,1.09-2.15,1.09-3.43c0-0.66-0.11-1.31-0.34-1.94   C1244.5,487.41,1244.15,486.85,1243.69,486.35z"></path>		<path class="st0" d="M838.23,496.7c-0.58-1.39-1.12-2.68-1.62-3.88c-0.17-0.37-0.35-0.56-0.56-0.56s-0.39,0.19-0.56,0.56   l-3.11,7.51c-0.17,0.37-0.17,0.69,0,0.96s0.48,0.4,0.93,0.4h5.52c0.41,0,0.71-0.13,0.9-0.4s0.18-0.59-0.03-0.96   C839.31,499.3,838.81,498.09,838.23,496.7z"></path>		<path class="st0" d="M1032.99,487.82c-1.04-1.06-2.24-1.9-3.6-2.54c-1.36-0.64-2.81-0.96-4.34-0.96c-1.53,0-2.98,0.32-4.35,0.96   s-2.56,1.49-3.57,2.54c-1.01,1.06-1.81,2.3-2.39,3.72c-0.58,1.43-0.87,2.91-0.87,4.44c0,1.57,0.29,3.06,0.87,4.47   c0.58,1.41,1.38,2.65,2.39,3.72c1.01,1.08,2.2,1.93,3.57,2.58s2.81,0.96,4.35,0.96c1.53,0,2.98-0.32,4.34-0.96   c1.37-0.64,2.57-1.5,3.6-2.58c1.04-1.08,1.84-2.32,2.42-3.72c0.58-1.41,0.87-2.9,0.87-4.47c0-1.53-0.29-3.01-0.87-4.44   C1034.83,490.12,1034.02,488.87,1032.99,487.82z"></path>		<path class="st0" d="M1144.4,486.89c-1.01-0.81-2.13-1.36-3.35-1.65c-1.22-0.29-2.41-0.43-3.57-0.43h-4.66   c-0.41,0-0.76,0.15-1.06,0.43c-0.29,0.29-0.43,0.64-0.43,1.06v19.49c0,0.42,0.15,0.77,0.43,1.06c0.29,0.29,0.64,0.44,1.06,0.44   h4.66c1.16,0,2.36-0.15,3.6-0.44c1.24-0.29,2.36-0.84,3.35-1.64c0.99-0.81,1.81-1.95,2.45-3.41c0.64-1.47,0.96-3.39,0.96-5.74   c0-2.36-0.32-4.27-0.96-5.74C1146.24,488.83,1145.41,487.69,1144.4,486.89z"></path>		<path class="st0" d="M425.93,496.7c-0.58-1.39-1.12-2.68-1.62-3.88c-0.17-0.37-0.35-0.56-0.56-0.56c-0.21,0-0.39,0.19-0.56,0.56   l-3.11,7.51c-0.17,0.37-0.17,0.69,0,0.96s0.48,0.4,0.93,0.4h5.52c0.41,0,0.71-0.13,0.9-0.4s0.18-0.59-0.03-0.96   C427,499.3,426.51,498.09,425.93,496.7z"></path>		<path class="st0" d="M236.76,496.7c-0.58-1.39-1.12-2.68-1.61-3.88c-0.17-0.37-0.35-0.56-0.56-0.56c-0.21,0-0.4,0.19-0.56,0.56   l-3.1,7.51c-0.17,0.37-0.17,0.69,0,0.96c0.16,0.27,0.47,0.4,0.93,0.4h5.53c0.41,0,0.71-0.13,0.9-0.4   c0.19-0.27,0.18-0.59-0.03-0.96C237.83,499.3,237.33,498.09,236.76,496.7z"></path>		<path class="st0" d="M1450.57,496.7c-0.58-1.39-1.12-2.68-1.61-3.88c-0.17-0.37-0.35-0.56-0.56-0.56c-0.21,0-0.4,0.19-0.56,0.56   l-3.1,7.51c-0.17,0.37-0.17,0.69,0,0.96c0.17,0.27,0.47,0.4,0.93,0.4h5.53c0.41,0,0.71-0.13,0.9-0.4   c0.19-0.27,0.18-0.59-0.03-0.96C1451.64,499.3,1451.14,498.09,1450.57,496.7z"></path>		<path class="st0" d="M274.19,490.52h5.77c0.83,0,1.49-0.32,1.99-0.96c0.5-0.64,0.74-1.36,0.74-2.14c0-0.74-0.3-1.39-0.9-1.92   c-0.6-0.54-1.17-0.81-1.71-0.81h-5.9c-0.42,0-0.77,0.15-1.06,0.44c-0.29,0.29-0.44,0.64-0.44,1.06v2.86   c0,0.41,0.15,0.77,0.44,1.06C273.43,490.38,273.78,490.52,274.19,490.52z"></path>		<path class="st0" d="M280.71,500.76h-6.52c-0.42,0-0.77,0.15-1.06,0.43c-0.29,0.29-0.44,0.64-0.44,1.06v3.54   c0,0.42,0.15,0.77,0.44,1.06c0.29,0.29,0.64,0.44,1.06,0.44h6.95c0.75,0,1.45-0.31,2.11-0.93c0.66-0.62,0.99-1.35,0.99-2.17   c0-0.74-0.32-1.5-0.96-2.27C282.65,501.15,281.79,500.76,280.71,500.76z"></path>		<path class="st0" d="M324.83,486.52c-0.35-0.52-0.82-0.95-1.42-1.31c-0.6-0.35-1.33-0.53-2.19-0.53h-6.55   c-0.41,0-0.76,0.15-1.05,0.44c-0.29,0.29-0.43,0.64-0.43,1.06v6.58c0,0.42,0.14,0.77,0.43,1.06c0.29,0.29,0.64,0.44,1.05,0.44   h6.55c0.49,0,1.01-0.09,1.54-0.28c0.54-0.19,1.03-0.47,1.48-0.87c0.45-0.39,0.82-0.88,1.11-1.46c0.29-0.58,0.43-1.26,0.43-2.05   c0-0.41-0.07-0.9-0.21-1.46C325.42,487.57,325.18,487.03,324.83,486.52z"></path>		<path class="st0" d="M918.88,496.7c-0.58-1.39-1.12-2.68-1.62-3.88c-0.17-0.37-0.35-0.56-0.56-0.56c-0.21,0-0.39,0.19-0.56,0.56   l-3.11,7.51c-0.17,0.37-0.17,0.69,0,0.96s0.48,0.4,0.93,0.4h5.52c0.41,0,0.71-0.13,0.9-0.4s0.18-0.59-0.03-0.96   C919.95,499.3,919.46,498.09,918.88,496.7z"></path>		<path class="st0" d="M1791.53,496.7c-0.58-1.39-1.12-2.68-1.61-3.88c-0.17-0.37-0.35-0.56-0.56-0.56c-0.21,0-0.4,0.19-0.56,0.56   l-3.1,7.51c-0.17,0.37-0.17,0.69,0,0.96c0.17,0.27,0.47,0.4,0.93,0.4h5.53c0.41,0,0.71-0.13,0.9-0.4   c0.19-0.27,0.18-0.59-0.03-0.96C1792.61,499.3,1792.11,498.09,1791.53,496.7z"></path>		<path class="st0" d="M1700.39,490.52h5.77c0.83,0,1.49-0.32,1.99-0.96c0.5-0.64,0.74-1.36,0.74-2.14c0-0.74-0.3-1.39-0.9-1.92   c-0.6-0.54-1.17-0.81-1.71-0.81h-5.9c-0.42,0-0.77,0.15-1.06,0.44c-0.29,0.29-0.44,0.64-0.44,1.06v2.86   c0,0.41,0.15,0.77,0.44,1.06C1699.63,490.38,1699.98,490.52,1700.39,490.52z"></path>		<path class="st0" d="M1706.91,500.76h-6.52c-0.42,0-0.77,0.15-1.06,0.43c-0.29,0.29-0.44,0.64-0.44,1.06v3.54   c0,0.42,0.15,0.77,0.44,1.06c0.29,0.29,0.64,0.44,1.06,0.44h6.95c0.74,0,1.45-0.31,2.11-0.93c0.66-0.62,0.99-1.35,0.99-2.17   c0-0.74-0.32-1.5-0.96-2.27C1708.84,501.15,1707.99,500.76,1706.91,500.76z"></path>		<path class="st0" d="M90.83,442.97c-7.21,0-13.05,5.84-13.05,13.05v89.46h1814.58c7.21,0,13.05-5.84,13.05-13.05v-89.46H90.83z    M1017.4,470.03l8.57-11.11c0.25-0.33,0.6-0.56,1.06-0.68c0.45-0.12,0.87-0.1,1.24,0.06l8.94,3.85c0.83,0.41,0.89,0.91,0.19,1.49   l-8.88,6.64c-0.33,0.25-0.75,0.47-1.27,0.65c-0.52,0.19-0.98,0.28-1.4,0.28h-7.88c-0.41,0-0.68-0.11-0.81-0.34   C1017.03,470.64,1017.11,470.36,1017.4,470.03z M524.45,470.03l8.57-11.11c0.25-0.33,0.6-0.56,1.06-0.68   c0.45-0.12,0.87-0.1,1.24,0.06l8.94,3.85c0.83,0.41,0.89,0.91,0.19,1.49l-8.88,6.64c-0.33,0.25-0.75,0.47-1.27,0.65   s-0.98,0.28-1.4,0.28h-7.89c-0.41,0-0.68-0.11-0.81-0.34C524.08,470.64,524.16,470.36,524.45,470.03z M194.91,502.44   c-0.29,0.29-0.43,0.64-0.43,1.06v13.72c0,0.41-0.15,0.76-0.43,1.06c-0.29,0.29-0.64,0.43-1.05,0.43h-9.33   c-0.41,0-0.76-0.15-1.05-0.43c-0.29-0.29-0.43-0.64-0.43-1.06v-42.47c0-0.41,0.14-0.77,0.43-1.06c0.29-0.29,0.64-0.44,1.05-0.44   h31.55c0.41,0,0.76,0.15,1.06,0.44c0.29,0.29,0.44,0.64,0.44,1.06v8.55c0,0.42-0.15,0.77-0.44,1.06   c-0.29,0.29-0.64,0.44-1.06,0.44h-19.25c-0.41,0-0.76,0.14-1.06,0.43c-0.29,0.29-0.43,0.63-0.43,1.04v2.58   c0,0.41,0.15,0.76,0.43,1.05c0.29,0.29,0.64,0.43,1.06,0.43h16.76c0.41,0,0.76,0.15,1.06,0.44c0.29,0.29,0.43,0.64,0.43,1.06v8.69   c0,0.42-0.15,0.77-0.43,1.06c-0.29,0.29-0.64,0.44-1.06,0.44h-16.76C195.55,502.01,195.2,502.15,194.91,502.44z M259.08,518.08   c-0.23,0.42-0.67,0.62-1.33,0.62h-10.62c-0.46,0-0.88-0.14-1.27-0.4c-0.4-0.27-0.69-0.59-0.9-0.96l-1.68-3.72   c-0.21-0.37-0.51-0.69-0.9-0.96c-0.39-0.27-0.8-0.41-1.21-0.41h-13.1c-0.46,0-0.88,0.14-1.27,0.41c-0.39,0.27-0.67,0.59-0.84,0.96   l-1.74,3.72c-0.17,0.37-0.45,0.69-0.84,0.96c-0.4,0.27-0.8,0.4-1.21,0.4h-10.68c-0.21,0-0.42-0.04-0.65-0.12   c-0.23-0.08-0.41-0.21-0.56-0.37c-0.14-0.17-0.24-0.37-0.28-0.62c-0.04-0.25,0.02-0.54,0.19-0.87l18-42.03   c0.17-0.37,0.44-0.69,0.84-0.96c0.39-0.27,0.82-0.4,1.27-0.4h8.69c0.41,0,0.82,0.13,1.21,0.4c0.39,0.27,0.67,0.59,0.84,0.96   l18.13,42.22C259.33,517.28,259.3,517.67,259.08,518.08z M295.95,511.6c-0.85,1.76-2,3.17-3.45,4.22s-3.12,1.8-5,2.23   c-1.88,0.44-3.86,0.65-5.93,0.65H261.9c-0.42,0-0.77-0.15-1.06-0.43c-0.29-0.29-0.44-0.64-0.44-1.06v-42.47   c0-0.41,0.15-0.77,0.44-1.06c0.29-0.29,0.64-0.44,1.06-0.44h18.75c1.99,0,3.89,0.22,5.71,0.65c1.82,0.43,3.42,1.15,4.81,2.14   c1.38,0.99,2.5,2.29,3.35,3.88c0.85,1.59,1.27,3.55,1.27,5.87c0,1.86-0.47,3.47-1.4,4.84c-0.93,1.37-1.93,2.44-3.01,3.23   c-0.74,0.54-0.7,1.01,0.12,1.43c0.66,0.37,1.33,0.83,1.99,1.36c0.66,0.54,1.27,1.2,1.83,1.99c0.56,0.79,1.01,1.7,1.37,2.73   c0.35,1.04,0.53,2.22,0.53,3.54C297.23,507.61,296.8,509.84,295.95,511.6z M340.93,518.12c-0.12,0.39-0.4,0.59-0.81,0.59h-11.55   c-0.41,0-0.86-0.11-1.33-0.34c-0.48-0.23-0.84-0.51-1.09-0.84c-1.32-1.74-2.63-3.5-3.93-5.28c-1.3-1.78-2.58-3.58-3.86-5.4   c-0.25-0.33-0.6-0.61-1.05-0.84c-0.45-0.23-0.88-0.34-1.3-0.34h-1.36c-0.41,0-0.76,0.15-1.05,0.43c-0.29,0.29-0.43,0.64-0.43,1.06   v10.06c0,0.41-0.15,0.76-0.44,1.06c-0.29,0.29-0.64,0.43-1.06,0.43h-9.3c-0.42,0-0.77-0.15-1.06-0.43   c-0.29-0.29-0.44-0.64-0.44-1.06v-42.47c0-0.41,0.14-0.77,0.43-1.06c0.29-0.29,0.64-0.44,1.06-0.44h19.31   c2.4,0,4.61,0.4,6.64,1.21c2.03,0.81,3.76,1.93,5.18,3.38c1.43,1.45,2.55,3.17,3.35,5.15c0.81,1.99,1.21,4.18,1.21,6.58   c0,1.33-0.15,2.64-0.46,3.94c-0.31,1.3-0.76,2.53-1.34,3.69c-0.58,1.16-1.26,2.2-2.05,3.14c-0.79,0.93-1.68,1.71-2.67,2.33   c-0.33,0.25-0.55,0.55-0.65,0.9c-0.1,0.35-0.03,0.69,0.22,1.02c1.57,2.07,3.23,4.2,4.97,6.39c1.74,2.19,3.29,4.2,4.66,6.02   C340.99,517.36,341.06,517.73,340.93,518.12z M355.21,517.22c0,0.41-0.15,0.76-0.43,1.06c-0.29,0.29-0.64,0.43-1.05,0.43h-9.33   c-0.45,0-0.81-0.15-1.08-0.43c-0.27-0.29-0.4-0.64-0.4-1.06v-42.41c0-0.41,0.13-0.76,0.4-1.06c0.27-0.29,0.63-0.43,1.08-0.43h9.33   c0.41,0,0.76,0.15,1.05,0.43c0.29,0.29,0.43,0.64,0.43,1.06V517.22z M448.25,518.08c-0.23,0.42-0.67,0.62-1.34,0.62H436.3   c-0.46,0-0.88-0.14-1.27-0.4c-0.39-0.27-0.69-0.59-0.9-0.96l-1.67-3.72c-0.21-0.37-0.51-0.69-0.9-0.96   c-0.4-0.27-0.8-0.41-1.21-0.41h-13.1c-0.46,0-0.88,0.14-1.27,0.41c-0.4,0.27-0.67,0.59-0.84,0.96l-1.74,3.72   c-0.17,0.37-0.45,0.69-0.84,0.96c-0.39,0.27-0.8,0.4-1.21,0.4h-10.68c-0.21,0-0.43-0.04-0.65-0.12c-0.23-0.08-0.41-0.21-0.56-0.37   c-0.15-0.17-0.24-0.37-0.28-0.62c-0.04-0.25,0.02-0.54,0.19-0.87l3.2-7.47c-0.7,0.95-1.43,1.85-2.21,2.7   c-1.45,1.59-3.07,2.93-4.87,4.05c-1.8,1.11-3.8,1.98-5.99,2.59c-2.19,0.62-4.62,0.93-7.27,0.93c-3.31,0-6.41-0.62-9.31-1.86   c-2.9-1.24-5.43-2.92-7.6-5.03c-2.17-2.11-3.88-4.59-5.12-7.45s-1.86-5.9-1.86-9.13c0-3.23,0.62-6.27,1.86-9.13   s2.95-5.34,5.12-7.45c2.17-2.11,4.71-3.79,7.6-5.03c2.9-1.24,6-1.86,9.31-1.86c2.73,0,5.2,0.31,7.39,0.93   c2.19,0.62,4.18,1.49,5.96,2.61c1.78,1.12,3.39,2.48,4.81,4.07s2.74,3.34,3.94,5.24c0.21,0.33,0.25,0.68,0.12,1.06   c-0.12,0.37-0.37,0.64-0.74,0.81l-8.82,3.48c-0.42,0.17-0.83,0.17-1.24,0c-0.42-0.17-0.73-0.41-0.93-0.74   c-1.2-1.9-2.65-3.36-4.35-4.38c-1.7-1.01-3.74-1.52-6.15-1.52c-1.57,0-3.05,0.33-4.44,1c-1.39,0.66-2.6,1.54-3.63,2.65   c-1.04,1.1-1.84,2.37-2.42,3.83c-0.58,1.45-0.87,2.95-0.87,4.48c0,1.58,0.29,3.08,0.87,4.51c0.58,1.43,1.38,2.69,2.42,3.77   c1.04,1.08,2.25,1.95,3.63,2.61c1.39,0.67,2.87,1,4.44,1c2.28,0,4.34-0.55,6.18-1.65c1.84-1.1,3.3-2.51,4.38-4.25   c0.21-0.33,0.5-0.58,0.9-0.74c0.39-0.17,0.8-0.17,1.21,0l8.82,3.48c0.25,0.11,0.42,0.28,0.56,0.47l13.1-30.58   c0.16-0.37,0.44-0.69,0.84-0.96c0.4-0.27,0.82-0.4,1.27-0.4h8.69c0.41,0,0.82,0.13,1.21,0.4c0.39,0.27,0.67,0.59,0.84,0.96   l18.13,42.22C448.5,517.28,448.47,517.67,448.25,518.08z M458.46,500.59c0.58,1.43,1.38,2.69,2.42,3.77   c1.04,1.08,2.25,1.95,3.63,2.61c1.39,0.67,2.87,1,4.44,1c2.28,0,4.34-0.55,6.18-1.65c1.84-1.1,3.3-2.51,4.38-4.25   c0.21-0.33,0.5-0.58,0.9-0.74c0.39-0.17,0.8-0.17,1.21,0l8.82,3.48c0.37,0.17,0.62,0.42,0.74,0.77c0.12,0.35,0.08,0.71-0.12,1.09   c-1.2,1.94-2.52,3.7-3.97,5.29c-1.45,1.59-3.07,2.93-4.87,4.05c-1.8,1.11-3.8,1.98-5.99,2.59c-2.19,0.62-4.62,0.93-7.27,0.93   c-3.31,0-6.41-0.62-9.31-1.86c-2.9-1.24-5.43-2.92-7.6-5.03c-2.17-2.11-3.88-4.59-5.12-7.45c-1.24-2.86-1.86-5.9-1.86-9.13   c0-3.23,0.62-6.27,1.86-9.13c1.24-2.86,2.95-5.34,5.12-7.45c2.17-2.11,4.71-3.79,7.6-5.03c2.9-1.24,6-1.86,9.31-1.86   c2.73,0,5.2,0.31,7.39,0.93c2.19,0.62,4.18,1.49,5.96,2.61c1.78,1.12,3.39,2.48,4.81,4.07s2.74,3.34,3.94,5.24   c0.21,0.33,0.25,0.68,0.12,1.06c-0.12,0.37-0.37,0.64-0.74,0.81l-8.82,3.48c-0.42,0.17-0.83,0.17-1.24,0   c-0.42-0.17-0.73-0.41-0.93-0.74c-1.2-1.9-2.65-3.36-4.35-4.38c-1.7-1.01-3.74-1.52-6.15-1.52c-1.57,0-3.05,0.33-4.44,1   s-2.6,1.54-3.63,2.65c-1.04,1.1-1.84,2.37-2.42,3.83c-0.58,1.45-0.87,2.95-0.87,4.48C457.59,497.65,457.88,499.16,458.46,500.59z    M505.39,517.22c0,0.41-0.15,0.76-0.43,1.06c-0.29,0.29-0.64,0.43-1.05,0.43h-9.33c-0.45,0-0.81-0.15-1.08-0.43   c-0.27-0.29-0.4-0.64-0.4-1.06v-42.41c0-0.41,0.13-0.76,0.4-1.06c0.27-0.29,0.63-0.43,1.08-0.43h9.33c0.41,0,0.76,0.15,1.05,0.43   c0.29,0.29,0.43,0.64,0.43,1.06V517.22z M553.76,505.11c-1.24,2.86-2.93,5.35-5.06,7.48c-2.13,2.13-4.62,3.82-7.48,5.06   c-2.86,1.24-5.9,1.86-9.13,1.86c-3.23,0-6.27-0.62-9.13-1.86c-2.86-1.24-5.34-2.93-7.45-5.06c-2.11-2.13-3.79-4.62-5.03-7.48   c-1.24-2.86-1.86-5.9-1.86-9.13c0-3.23,0.62-6.27,1.86-9.13c1.24-2.86,2.92-5.35,5.03-7.48c2.11-2.13,4.59-3.82,7.45-5.06   c2.86-1.24,5.9-1.86,9.13-1.86c3.23,0,6.27,0.62,9.13,1.86c2.86,1.24,5.35,2.93,7.48,5.06c2.13,2.13,3.82,4.62,5.06,7.48   c1.24,2.86,1.86,5.9,1.86,9.13C555.62,499.21,555,502.25,553.76,505.11z M601.63,517.22c0,0.41-0.15,0.76-0.43,1.06   c-0.29,0.29-0.64,0.43-1.06,0.43h-9.17c-0.41,0-0.85-0.12-1.3-0.37c-0.45-0.25-0.81-0.54-1.05-0.87l-16.17-22.79   c-0.25-0.33-0.51-0.46-0.77-0.4c-0.27,0.06-0.4,0.3-0.4,0.71v22.23c0,0.41-0.15,0.76-0.44,1.06c-0.29,0.29-0.64,0.43-1.06,0.43   h-9.3c-0.42,0-0.77-0.15-1.06-0.43c-0.29-0.29-0.44-0.64-0.44-1.06v-42.47c0-0.41,0.14-0.77,0.43-1.06   c0.29-0.29,0.64-0.44,1.06-0.44h9.31c0.41,0,0.85,0.11,1.31,0.34c0.45,0.23,0.81,0.51,1.06,0.84l16.14,22.79   c0.25,0.33,0.5,0.48,0.78,0.43c0.27-0.04,0.4-0.27,0.4-0.68v-22.22c0-0.41,0.15-0.77,0.44-1.06c0.29-0.29,0.64-0.44,1.06-0.44   h9.19c0.41,0,0.76,0.15,1.06,0.44c0.29,0.29,0.44,0.64,0.44,1.06V517.22z M660.48,483.19c0,0.41-0.15,0.76-0.43,1.06   c-0.29,0.29-0.64,0.43-1.06,0.43h-19.31c-0.42,0-0.77,0.15-1.06,0.44c-0.29,0.29-0.44,0.64-0.44,1.06v2.61   c0,0.41,0.15,0.76,0.44,1.06c0.29,0.29,0.64,0.43,1.06,0.43h16.83c0.41,0,0.76,0.15,1.06,0.44c0.29,0.29,0.43,0.64,0.43,1.06v8.57   c0,0.42-0.15,0.77-0.43,1.06c-0.29,0.29-0.64,0.44-1.06,0.44h-16.83c-0.42,0-0.77,0.15-1.06,0.43c-0.29,0.29-0.44,0.64-0.44,1.06   v2.36c0,0.41,0.15,0.76,0.44,1.06c0.29,0.29,0.64,0.43,1.06,0.43h19.31c0.41,0,0.76,0.15,1.06,0.44c0.29,0.29,0.43,0.64,0.43,1.06   v8.57c0,0.41-0.15,0.76-0.43,1.06c-0.29,0.29-0.64,0.43-1.06,0.43h-31.6c-0.42,0-0.77-0.15-1.06-0.43   c-0.29-0.29-0.44-0.64-0.44-1.06v-42.47c0-0.41,0.15-0.77,0.44-1.06c0.29-0.29,0.64-0.44,1.06-0.44h31.6   c0.41,0,0.76,0.15,1.06,0.44c0.29,0.29,0.43,0.64,0.43,1.06V483.19z M696.18,517.22c0,0.41-0.15,0.76-0.43,1.06   c-0.29,0.29-0.64,0.43-1.05,0.43h-9.33c-0.45,0-0.81-0.15-1.08-0.43c-0.27-0.29-0.4-0.64-0.4-1.06v-42.41   c0-0.41,0.13-0.76,0.4-1.06c0.27-0.29,0.63-0.43,1.08-0.43h9.33c0.41,0,0.76,0.15,1.05,0.43c0.29,0.29,0.43,0.64,0.43,1.06V517.22   z M744.11,517.22c0,0.41-0.15,0.76-0.43,1.06c-0.29,0.29-0.64,0.43-1.06,0.43h-9.17c-0.41,0-0.85-0.12-1.3-0.37   c-0.45-0.25-0.81-0.54-1.05-0.87l-16.17-22.79c-0.25-0.33-0.51-0.46-0.78-0.4c-0.27,0.06-0.4,0.3-0.4,0.71v22.23   c0,0.41-0.15,0.76-0.44,1.06c-0.29,0.29-0.64,0.43-1.06,0.43h-9.3c-0.42,0-0.77-0.15-1.06-0.43c-0.29-0.29-0.44-0.64-0.44-1.06   v-42.47c0-0.41,0.14-0.77,0.43-1.06c0.29-0.29,0.64-0.44,1.06-0.44h9.31c0.41,0,0.85,0.11,1.31,0.34   c0.45,0.23,0.81,0.51,1.06,0.84l16.14,22.79c0.25,0.33,0.5,0.48,0.77,0.43c0.27-0.04,0.4-0.27,0.4-0.68v-22.22   c0-0.41,0.15-0.77,0.44-1.06c0.29-0.29,0.64-0.44,1.06-0.44h9.19c0.41,0,0.76,0.15,1.06,0.44c0.29,0.29,0.44,0.64,0.44,1.06   V517.22z M808.18,485.12c-0.29,0.29-0.43,0.64-0.43,1.06v31.04c0,0.41-0.14,0.76-0.41,1.06c-0.27,0.29-0.63,0.43-1.09,0.43h-9.31   c-0.41,0-0.77-0.15-1.06-0.43c-0.29-0.29-0.43-0.64-0.43-1.06v-31.04c0-0.41-0.14-0.77-0.41-1.06c-0.27-0.29-0.63-0.44-1.09-0.44   h-8.82c-0.42,0-0.77-0.14-1.06-0.43c-0.29-0.29-0.44-0.64-0.44-1.06v-1.54l-4.22,6.01c-0.25,0.33-0.58,0.54-0.99,0.62   c-0.41,0.08-0.79,0-1.12-0.25c-2.11-1.32-4.08-2.27-5.9-2.82c-1.82-0.56-3.5-0.84-5.03-0.84c-0.45,0-0.98,0.01-1.58,0.03   c-0.6,0.02-1.17,0.1-1.71,0.25c-0.54,0.15-0.98,0.38-1.34,0.71c-0.35,0.33-0.53,0.79-0.53,1.37c0,0.58,0.44,1.1,1.3,1.55   c0.87,0.46,1.86,0.85,2.98,1.18c1.12,0.33,2.2,0.59,3.23,0.78c1.03,0.19,1.7,0.3,1.99,0.34c1.49,0.29,3.13,0.71,4.9,1.27   c1.78,0.56,3.45,1.39,5,2.48c1.55,1.1,2.86,2.53,3.91,4.29c1.06,1.76,1.58,3.96,1.58,6.61c0,2.48-0.44,4.63-1.31,6.43   s-2.08,3.28-3.63,4.44c-1.55,1.16-3.42,2.02-5.59,2.58c-2.17,0.56-4.58,0.84-7.23,0.84c-2.15,0-4.16-0.18-6.02-0.53   c-1.86-0.35-3.6-0.84-5.21-1.46c-1.61-0.62-3.12-1.35-4.5-2.2c-1.39-0.85-2.66-1.75-3.82-2.7c-0.33-0.25-0.52-0.59-0.56-1.02   c-0.04-0.44,0.06-0.82,0.31-1.15l4.78-6.89c0.25-0.33,0.58-0.54,0.99-0.62c0.41-0.08,0.79-0.02,1.12,0.19   c2.24,1.45,4.45,2.59,6.64,3.42c2.19,0.83,4.24,1.24,6.15,1.24c1.82,0,3.21-0.26,4.16-0.78c0.95-0.51,1.43-1.29,1.43-2.33   c0-0.54-0.21-0.96-0.62-1.27c-0.41-0.31-0.96-0.57-1.64-0.78c-0.68-0.21-1.48-0.37-2.39-0.49c-0.91-0.12-1.84-0.29-2.79-0.5   c-0.91-0.17-1.98-0.36-3.2-0.59c-1.22-0.23-2.47-0.56-3.76-0.99c-1.28-0.44-2.56-0.98-3.82-1.65c-1.26-0.66-2.39-1.51-3.38-2.54   c-0.99-1.04-1.79-2.27-2.39-3.69c-0.6-1.43-0.9-3.12-0.9-5.06c0-2.86,0.56-5.22,1.68-7.08c1.12-1.86,2.53-3.34,4.25-4.44   c1.72-1.1,3.63-1.86,5.74-2.3c2.11-0.43,4.16-0.65,6.15-0.65c3.47,0,6.59,0.51,9.34,1.52c2.62,0.97,5.13,2.37,7.54,4.17v-3.58   c0-0.41,0.15-0.77,0.44-1.06c0.29-0.29,0.64-0.44,1.06-0.44h32.78c0.45,0,0.82,0.15,1.09,0.44c0.27,0.29,0.4,0.64,0.4,1.06v8.44   c0,0.41-0.14,0.76-0.4,1.06c-0.27,0.29-0.63,0.43-1.09,0.43h-8.69C808.82,484.68,808.47,484.83,808.18,485.12z M941.2,518.08   c-0.23,0.42-0.67,0.62-1.34,0.62h-10.62c-0.46,0-0.88-0.14-1.27-0.4c-0.39-0.27-0.69-0.59-0.9-0.96l-1.67-3.72   c-0.21-0.37-0.51-0.69-0.9-0.96c-0.4-0.27-0.8-0.41-1.21-0.41h-13.1c-0.46,0-0.88,0.14-1.27,0.41c-0.4,0.27-0.67,0.59-0.84,0.96   l-1.74,3.72c-0.17,0.37-0.45,0.69-0.84,0.96c-0.39,0.27-0.8,0.4-1.21,0.4h-10.68c-0.13,0-0.27-0.05-0.4-0.08   c-0.13,0.04-0.26,0.08-0.41,0.08h-30.98c-0.46,0-0.82-0.15-1.09-0.43c-0.07-0.08-0.11-0.17-0.16-0.26   c-0.01,0.02-0.01,0.05-0.02,0.07c-0.23,0.42-0.67,0.62-1.34,0.62H848.6c-0.46,0-0.88-0.14-1.27-0.4c-0.39-0.27-0.69-0.59-0.9-0.96   l-1.67-3.72c-0.21-0.37-0.51-0.69-0.9-0.96c-0.4-0.27-0.8-0.41-1.21-0.41h-13.1c-0.46,0-0.88,0.14-1.27,0.41   c-0.4,0.27-0.67,0.59-0.84,0.96l-1.74,3.72c-0.17,0.37-0.45,0.69-0.84,0.96c-0.39,0.27-0.8,0.4-1.21,0.4h-10.68   c-0.21,0-0.43-0.04-0.65-0.12c-0.23-0.08-0.41-0.21-0.56-0.37c-0.15-0.17-0.24-0.37-0.28-0.62c-0.04-0.25,0.02-0.54,0.19-0.87   l18.01-42.03c0.16-0.37,0.44-0.69,0.84-0.96c0.4-0.27,0.82-0.4,1.27-0.4h8.69c0.41,0,0.82,0.13,1.21,0.4   c0.39,0.27,0.67,0.59,0.84,0.96l17.82,41.49v-41.43c0-0.41,0.14-0.77,0.41-1.06c0.27-0.29,0.63-0.44,1.09-0.44h9.31   c0.41,0,0.76,0.15,1.06,0.44c0.29,0.29,0.43,0.64,0.43,1.06v31.04c0,0.42,0.14,0.77,0.41,1.06c0.27,0.29,0.63,0.44,1.09,0.44   h18.69c0.42,0,0.77,0.15,1.06,0.43c0.29,0.29,0.44,0.64,0.44,1.06v3.31l16.02-37.39c0.16-0.37,0.44-0.69,0.84-0.96   c0.4-0.27,0.82-0.4,1.27-0.4h8.69c0.41,0,0.82,0.13,1.21,0.4s0.67,0.59,0.84,0.96l18.13,42.22   C941.45,517.28,941.42,517.67,941.2,518.08z M951.41,500.59c0.58,1.43,1.38,2.69,2.42,3.77s2.25,1.95,3.63,2.61   c1.39,0.67,2.87,1,4.44,1c2.28,0,4.34-0.55,6.18-1.65c1.84-1.1,3.3-2.51,4.38-4.25c0.21-0.33,0.5-0.58,0.9-0.74   c0.39-0.17,0.8-0.17,1.21,0l8.82,3.48c0.37,0.17,0.62,0.42,0.74,0.77c0.12,0.35,0.08,0.71-0.12,1.09c-1.2,1.94-2.52,3.7-3.97,5.29   c-1.45,1.59-3.07,2.93-4.87,4.05c-1.8,1.11-3.8,1.98-5.99,2.59c-2.19,0.62-4.62,0.93-7.27,0.93c-3.31,0-6.41-0.62-9.31-1.86   c-2.9-1.24-5.43-2.92-7.6-5.03c-2.17-2.11-3.88-4.59-5.12-7.45s-1.86-5.9-1.86-9.13c0-3.23,0.62-6.27,1.86-9.13   s2.95-5.34,5.12-7.45c2.17-2.11,4.71-3.79,7.6-5.03c2.9-1.24,6-1.86,9.31-1.86c2.73,0,5.2,0.31,7.39,0.93   c2.19,0.62,4.18,1.49,5.96,2.61c1.78,1.12,3.39,2.48,4.81,4.07s2.74,3.34,3.94,5.24c0.21,0.33,0.25,0.68,0.12,1.06   c-0.12,0.37-0.37,0.64-0.74,0.81l-8.82,3.48c-0.42,0.17-0.83,0.17-1.24,0c-0.42-0.17-0.73-0.41-0.93-0.74   c-1.2-1.9-2.65-3.36-4.35-4.38c-1.7-1.01-3.74-1.52-6.15-1.52c-1.57,0-3.05,0.33-4.44,1s-2.6,1.54-3.63,2.65   c-1.04,1.1-1.84,2.37-2.42,3.83c-0.58,1.45-0.87,2.95-0.87,4.48C950.54,497.65,950.83,499.16,951.41,500.59z M998.34,517.22   c0,0.41-0.15,0.76-0.43,1.06c-0.29,0.29-0.64,0.43-1.05,0.43h-9.33c-0.45,0-0.81-0.15-1.08-0.43c-0.27-0.29-0.4-0.64-0.4-1.06   v-42.41c0-0.41,0.14-0.76,0.4-1.06c0.27-0.29,0.63-0.43,1.08-0.43h9.33c0.41,0,0.76,0.15,1.05,0.43c0.29,0.29,0.43,0.64,0.43,1.06   V517.22z M1046.71,505.11c-1.24,2.86-2.93,5.35-5.06,7.48c-2.13,2.13-4.62,3.82-7.48,5.06c-2.86,1.24-5.9,1.86-9.13,1.86   c-3.23,0-6.27-0.62-9.13-1.86c-2.86-1.24-5.34-2.93-7.45-5.06c-2.11-2.13-3.79-4.62-5.03-7.48c-1.24-2.86-1.86-5.9-1.86-9.13   c0-3.23,0.62-6.27,1.86-9.13c1.24-2.86,2.92-5.35,5.03-7.48c2.11-2.13,4.59-3.82,7.45-5.06c2.86-1.24,5.9-1.86,9.13-1.86   c3.23,0,6.27,0.62,9.13,1.86c2.86,1.24,5.35,2.93,7.48,5.06c2.13,2.13,3.82,4.62,5.06,7.48c1.24,2.86,1.86,5.9,1.86,9.13   C1048.57,499.21,1047.95,502.25,1046.71,505.11z M1094.57,517.22c0,0.41-0.14,0.76-0.43,1.06c-0.29,0.29-0.64,0.43-1.05,0.43   h-9.17c-0.41,0-0.85-0.12-1.3-0.37c-0.45-0.25-0.81-0.54-1.06-0.87l-16.17-22.79c-0.25-0.33-0.51-0.46-0.78-0.4s-0.4,0.3-0.4,0.71   v22.23c0,0.41-0.15,0.76-0.44,1.06c-0.29,0.29-0.64,0.43-1.06,0.43h-9.3c-0.42,0-0.77-0.15-1.06-0.43   c-0.29-0.29-0.44-0.64-0.44-1.06v-42.47c0-0.41,0.14-0.77,0.43-1.06c0.29-0.29,0.64-0.44,1.06-0.44h9.31   c0.41,0,0.85,0.11,1.3,0.34c0.46,0.23,0.81,0.51,1.06,0.84l16.14,22.79c0.25,0.33,0.51,0.48,0.78,0.43   c0.27-0.04,0.4-0.27,0.4-0.68v-22.22c0-0.41,0.15-0.77,0.44-1.06c0.29-0.29,0.64-0.44,1.06-0.44h9.19c0.41,0,0.76,0.15,1.06,0.44   c0.29,0.29,0.43,0.64,0.43,1.06V517.22z M1158.52,505.64c-1.16,2.88-2.86,5.35-5.09,7.42c-2.07,1.86-4.44,3.27-7.11,4.22   c-2.67,0.95-5.62,1.43-8.85,1.43h-16.95c-0.41,0-0.76-0.15-1.06-0.43c-0.29-0.29-0.43-0.64-0.43-1.06v-42.47   c0-0.41,0.14-0.77,0.43-1.06c0.29-0.29,0.64-0.44,1.06-0.44h16.95c6.5,0,11.82,1.9,15.96,5.71c2.23,2.07,3.93,4.53,5.09,7.39   c1.16,2.86,1.74,6.06,1.74,9.62C1160.26,499.54,1159.68,502.76,1158.52,505.64z M1197.2,483.19c0,0.41-0.15,0.76-0.44,1.06   c-0.29,0.29-0.64,0.43-1.06,0.43h-19.31c-0.41,0-0.76,0.15-1.06,0.44c-0.29,0.29-0.43,0.64-0.43,1.06v2.61   c0,0.41,0.14,0.76,0.43,1.06c0.29,0.29,0.64,0.43,1.06,0.43h16.83c0.41,0,0.76,0.15,1.06,0.44c0.29,0.29,0.44,0.64,0.44,1.06v8.57   c0,0.42-0.15,0.77-0.44,1.06c-0.29,0.29-0.64,0.44-1.06,0.44h-16.83c-0.41,0-0.76,0.15-1.06,0.43c-0.29,0.29-0.43,0.64-0.43,1.06   v2.36c0,0.41,0.14,0.76,0.43,1.06s0.64,0.43,1.06,0.43h19.31c0.41,0,0.76,0.15,1.06,0.44c0.29,0.29,0.44,0.64,0.44,1.06v8.57   c0,0.41-0.15,0.76-0.44,1.06c-0.29,0.29-0.64,0.43-1.06,0.43h-31.6c-0.41,0-0.76-0.15-1.06-0.43c-0.29-0.29-0.43-0.64-0.43-1.06   v-42.47c0-0.41,0.14-0.77,0.43-1.06c0.29-0.29,0.64-0.44,1.06-0.44h31.6c0.41,0,0.76,0.15,1.06,0.44   c0.29,0.29,0.44,0.64,0.44,1.06V483.19z M1256.24,496.51c-0.75,2.01-1.88,3.74-3.39,5.21c-1.51,1.47-3.4,2.63-5.66,3.48   c-2.26,0.85-4.91,1.27-7.94,1.27h-5.41c-0.42,0-0.77,0.15-1.06,0.44c-0.29,0.29-0.44,0.64-0.44,1.06v9.25   c0,0.41-0.15,0.76-0.43,1.06c-0.29,0.29-0.64,0.43-1.05,0.43h-9.33c-0.41,0-0.76-0.15-1.05-0.43c-0.29-0.29-0.43-0.64-0.43-1.06   v-42.47c0-0.41,0.14-0.77,0.43-1.06c0.29-0.29,0.64-0.44,1.06-0.44h19c2.32,0,4.5,0.44,6.55,1.31c2.05,0.87,3.83,2.07,5.34,3.6   c1.51,1.53,2.71,3.31,3.6,5.34c0.89,2.03,1.33,4.2,1.33,6.52S1256.99,494.5,1256.24,496.51z M1271.89,517.22   c0,0.41-0.15,0.76-0.43,1.06c-0.29,0.29-0.64,0.43-1.05,0.43h-9.33c-0.45,0-0.81-0.15-1.08-0.43c-0.27-0.29-0.4-0.64-0.4-1.06   v-42.41c0-0.41,0.13-0.76,0.4-1.06c0.27-0.29,0.63-0.43,1.08-0.43h9.33c0.41,0,0.76,0.15,1.05,0.43c0.29,0.29,0.43,0.64,0.43,1.06   V517.22z M1311.62,511.66c-0.87,1.8-2.08,3.28-3.63,4.44c-1.55,1.16-3.41,2.02-5.59,2.58c-2.17,0.56-4.58,0.84-7.23,0.84   c-2.15,0-4.16-0.18-6.02-0.53c-1.86-0.35-3.6-0.84-5.22-1.46c-1.61-0.62-3.12-1.35-4.5-2.2c-1.39-0.85-2.66-1.75-3.82-2.7   c-0.33-0.25-0.52-0.59-0.56-1.02c-0.04-0.44,0.06-0.82,0.31-1.15l4.78-6.89c0.25-0.33,0.58-0.54,0.99-0.62   c0.41-0.08,0.79-0.02,1.12,0.19c2.24,1.45,4.45,2.59,6.64,3.42c2.19,0.83,4.24,1.24,6.15,1.24c1.82,0,3.21-0.26,4.16-0.78   c0.95-0.51,1.43-1.29,1.43-2.33c0-0.54-0.21-0.96-0.62-1.27c-0.42-0.31-0.96-0.57-1.65-0.78c-0.68-0.21-1.48-0.37-2.39-0.49   c-0.91-0.12-1.84-0.29-2.79-0.5c-0.91-0.17-1.98-0.36-3.2-0.59c-1.22-0.23-2.47-0.56-3.76-0.99c-1.28-0.44-2.56-0.98-3.82-1.65   c-1.26-0.66-2.39-1.51-3.38-2.54c-0.99-1.04-1.79-2.27-2.39-3.69c-0.6-1.43-0.9-3.12-0.9-5.06c0-2.86,0.56-5.22,1.68-7.08   c1.12-1.86,2.53-3.34,4.25-4.44c1.72-1.1,3.63-1.86,5.74-2.3c2.11-0.43,4.16-0.65,6.15-0.65c3.48,0,6.59,0.51,9.34,1.52   c2.75,1.01,5.39,2.5,7.92,4.44c0.33,0.29,0.52,0.64,0.56,1.06c0.04,0.41-0.06,0.79-0.31,1.12l-4.84,6.89   c-0.25,0.33-0.58,0.54-0.99,0.62c-0.41,0.08-0.79,0-1.12-0.25c-2.11-1.32-4.08-2.27-5.9-2.82c-1.82-0.56-3.5-0.84-5.03-0.84   c-0.46,0-0.98,0.01-1.58,0.03c-0.6,0.02-1.17,0.1-1.71,0.25c-0.54,0.15-0.98,0.38-1.34,0.71c-0.35,0.33-0.53,0.79-0.53,1.37   c0,0.58,0.44,1.1,1.31,1.55s1.86,0.85,2.98,1.18c1.12,0.33,2.19,0.59,3.23,0.78c1.04,0.19,1.7,0.3,1.99,0.34   c1.49,0.29,3.13,0.71,4.9,1.27c1.78,0.56,3.45,1.39,5,2.48c1.55,1.1,2.86,2.53,3.91,4.29c1.06,1.76,1.58,3.96,1.58,6.61   C1312.92,507.72,1312.49,509.86,1311.62,511.66z M1327.51,500.59c0.58,1.43,1.39,2.69,2.42,3.77c1.04,1.08,2.25,1.95,3.63,2.61   c1.39,0.67,2.87,1,4.44,1c2.28,0,4.34-0.55,6.18-1.65c1.84-1.1,3.3-2.51,4.38-4.25c0.21-0.33,0.51-0.58,0.9-0.74   c0.4-0.17,0.8-0.17,1.21,0l8.82,3.48c0.37,0.17,0.62,0.42,0.74,0.77c0.12,0.35,0.08,0.71-0.12,1.09c-1.2,1.94-2.52,3.7-3.97,5.29   c-1.45,1.59-3.07,2.93-4.87,4.05c-1.8,1.11-3.8,1.98-5.99,2.59c-2.19,0.62-4.62,0.93-7.27,0.93c-3.31,0-6.42-0.62-9.31-1.86   s-5.43-2.92-7.6-5.03c-2.17-2.11-3.88-4.59-5.12-7.45c-1.24-2.86-1.86-5.9-1.86-9.13c0-3.23,0.62-6.27,1.86-9.13   c1.24-2.86,2.95-5.34,5.12-7.45c2.17-2.11,4.71-3.79,7.6-5.03s6-1.86,9.31-1.86c2.73,0,5.2,0.31,7.39,0.93   c2.19,0.62,4.18,1.49,5.96,2.61c1.78,1.12,3.38,2.48,4.81,4.07c1.43,1.59,2.74,3.34,3.94,5.24c0.21,0.33,0.25,0.68,0.12,1.06   c-0.12,0.37-0.37,0.64-0.74,0.81l-8.82,3.48c-0.41,0.17-0.83,0.17-1.24,0c-0.41-0.17-0.72-0.41-0.93-0.74   c-1.2-1.9-2.65-3.36-4.35-4.38c-1.7-1.01-3.74-1.52-6.15-1.52c-1.57,0-3.05,0.33-4.44,1s-2.6,1.54-3.63,2.65   c-1.03,1.1-1.84,2.37-2.42,3.83c-0.58,1.45-0.87,2.95-0.87,4.48C1326.64,497.65,1326.93,499.16,1327.51,500.59z M1374.45,517.22   c0,0.41-0.15,0.76-0.43,1.06c-0.29,0.29-0.64,0.43-1.05,0.43h-9.33c-0.45,0-0.81-0.15-1.08-0.43c-0.27-0.29-0.4-0.64-0.4-1.06   v-42.41c0-0.41,0.13-0.76,0.4-1.06c0.27-0.29,0.63-0.43,1.08-0.43h9.33c0.41,0,0.76,0.15,1.05,0.43c0.29,0.29,0.43,0.64,0.43,1.06   V517.22z M1422.38,517.22c0,0.41-0.14,0.76-0.43,1.06c-0.29,0.29-0.64,0.43-1.05,0.43h-9.17c-0.41,0-0.85-0.12-1.3-0.37   c-0.45-0.25-0.81-0.54-1.06-0.87l-16.17-22.79c-0.25-0.33-0.51-0.46-0.78-0.4c-0.27,0.06-0.4,0.3-0.4,0.71v22.23   c0,0.41-0.15,0.76-0.44,1.06c-0.29,0.29-0.65,0.43-1.06,0.43h-9.3c-0.42,0-0.77-0.15-1.06-0.43c-0.29-0.29-0.44-0.64-0.44-1.06   v-42.47c0-0.41,0.15-0.77,0.44-1.06c0.29-0.29,0.64-0.44,1.06-0.44h9.31c0.41,0,0.85,0.11,1.3,0.34c0.46,0.23,0.81,0.51,1.06,0.84   l16.14,22.79c0.25,0.33,0.51,0.48,0.78,0.43c0.27-0.04,0.4-0.27,0.4-0.68v-22.22c0-0.41,0.15-0.77,0.44-1.06   c0.29-0.29,0.64-0.44,1.06-0.44h9.19c0.41,0,0.76,0.15,1.06,0.44c0.29,0.29,0.43,0.64,0.43,1.06V517.22z M1507.31,511.66   c-0.87,1.8-2.08,3.28-3.63,4.44c-1.55,1.16-3.41,2.02-5.59,2.58c-2.17,0.56-4.58,0.84-7.23,0.84c-2.15,0-4.16-0.18-6.02-0.53   c-1.86-0.35-3.6-0.84-5.22-1.46c-1.61-0.62-3.12-1.35-4.5-2.2c-1.39-0.85-2.66-1.75-3.82-2.7c-0.14-0.1-0.23-0.23-0.32-0.36   l1.99,4.64c0.17,0.37,0.13,0.76-0.09,1.18c-0.23,0.42-0.67,0.62-1.33,0.62h-10.62c-0.46,0-0.88-0.14-1.27-0.4   c-0.39-0.27-0.69-0.59-0.9-0.96l-1.68-3.72c-0.21-0.37-0.51-0.69-0.9-0.96c-0.39-0.27-0.8-0.41-1.21-0.41h-13.1   c-0.46,0-0.88,0.14-1.27,0.41c-0.4,0.27-0.68,0.59-0.84,0.96l-1.74,3.72c-0.17,0.37-0.45,0.69-0.84,0.96   c-0.39,0.27-0.8,0.4-1.21,0.4h-10.68c-0.21,0-0.42-0.04-0.65-0.12c-0.23-0.08-0.41-0.21-0.56-0.37c-0.14-0.17-0.24-0.37-0.28-0.62   c-0.04-0.25,0.02-0.54,0.19-0.87l18-42.03c0.17-0.37,0.45-0.69,0.84-0.96s0.82-0.4,1.27-0.4h8.69c0.41,0,0.82,0.13,1.21,0.4   c0.39,0.27,0.67,0.59,0.84,0.96l15.98,37.21c-0.03-0.1-0.08-0.19-0.09-0.3c-0.04-0.44,0.06-0.82,0.31-1.15l4.78-6.89   c0.25-0.33,0.58-0.54,0.99-0.62c0.41-0.08,0.79-0.02,1.12,0.19c2.24,1.45,4.45,2.59,6.64,3.42c2.19,0.83,4.24,1.24,6.15,1.24   c1.82,0,3.21-0.26,4.16-0.78c0.95-0.51,1.43-1.29,1.43-2.33c0-0.54-0.21-0.96-0.62-1.27c-0.42-0.31-0.96-0.57-1.65-0.78   c-0.68-0.21-1.48-0.37-2.39-0.49c-0.91-0.12-1.84-0.29-2.79-0.5c-0.91-0.17-1.98-0.36-3.2-0.59c-1.22-0.23-2.47-0.56-3.76-0.99   c-1.28-0.44-2.56-0.98-3.82-1.65c-1.26-0.66-2.39-1.51-3.38-2.54c-0.99-1.04-1.79-2.27-2.39-3.69c-0.6-1.43-0.9-3.12-0.9-5.06   c0-2.86,0.56-5.22,1.68-7.08c1.12-1.86,2.53-3.34,4.25-4.44c1.72-1.1,3.63-1.86,5.74-2.3c2.11-0.43,4.16-0.65,6.15-0.65   c3.48,0,6.59,0.51,9.34,1.52c2.75,1.01,5.39,2.5,7.92,4.44c0.33,0.29,0.52,0.64,0.56,1.06c0.04,0.41-0.06,0.79-0.31,1.12   l-4.84,6.89c-0.25,0.33-0.58,0.54-0.99,0.62c-0.41,0.08-0.79,0-1.12-0.25c-2.11-1.32-4.08-2.27-5.9-2.82   c-1.82-0.56-3.5-0.84-5.03-0.84c-0.46,0-0.98,0.01-1.58,0.03c-0.6,0.02-1.17,0.1-1.71,0.25c-0.54,0.15-0.98,0.38-1.34,0.71   c-0.35,0.33-0.53,0.79-0.53,1.37c0,0.58,0.44,1.1,1.31,1.55c0.87,0.46,1.86,0.85,2.98,1.18c1.12,0.33,2.19,0.59,3.23,0.78   s1.7,0.3,1.99,0.34c1.49,0.29,3.13,0.71,4.9,1.27c1.78,0.56,3.45,1.39,5,2.48c1.55,1.1,2.86,2.53,3.91,4.29   c1.06,1.76,1.58,3.96,1.58,6.61C1508.61,507.72,1508.18,509.86,1507.31,511.66z M1569.64,505.64c-1.16,2.88-2.86,5.35-5.09,7.42   c-2.07,1.86-4.44,3.27-7.11,4.22c-2.67,0.95-5.62,1.43-8.85,1.43h-16.95c-0.41,0-0.76-0.15-1.06-0.43   c-0.29-0.29-0.43-0.64-0.43-1.06v-42.47c0-0.41,0.14-0.77,0.43-1.06c0.29-0.29,0.64-0.44,1.06-0.44h16.95   c6.5,0,11.82,1.9,15.96,5.71c2.23,2.07,3.93,4.53,5.09,7.39c1.16,2.86,1.74,6.06,1.74,9.62   C1571.38,499.54,1570.8,502.76,1569.64,505.64z M1608.32,483.19c0,0.41-0.15,0.76-0.44,1.06c-0.29,0.29-0.64,0.43-1.06,0.43   h-19.31c-0.41,0-0.76,0.15-1.06,0.44c-0.29,0.29-0.43,0.64-0.43,1.06v2.61c0,0.41,0.14,0.76,0.43,1.06   c0.29,0.29,0.64,0.43,1.06,0.43h16.83c0.41,0,0.76,0.15,1.06,0.44c0.29,0.29,0.44,0.64,0.44,1.06v8.57c0,0.42-0.15,0.77-0.44,1.06   c-0.29,0.29-0.64,0.44-1.06,0.44h-16.83c-0.41,0-0.76,0.15-1.06,0.43c-0.29,0.29-0.43,0.64-0.43,1.06v2.36   c0,0.41,0.14,0.76,0.43,1.06c0.29,0.29,0.64,0.43,1.06,0.43h19.31c0.41,0,0.76,0.15,1.06,0.44c0.29,0.29,0.44,0.64,0.44,1.06v8.57   c0,0.41-0.15,0.76-0.44,1.06c-0.29,0.29-0.64,0.43-1.06,0.43h-31.6c-0.41,0-0.76-0.15-1.06-0.43c-0.29-0.29-0.43-0.64-0.43-1.06   v-42.47c0-0.41,0.14-0.77,0.43-1.06c0.29-0.29,0.64-0.44,1.06-0.44h31.6c0.41,0,0.76,0.15,1.06,0.44   c0.29,0.29,0.44,0.64,0.44,1.06V483.19z M1665.69,483.31c0,0.42-0.15,0.77-0.43,1.06c-0.29,0.29-0.64,0.44-1.06,0.44h-19.25   c-0.41,0-0.76,0.14-1.06,0.43c-0.29,0.29-0.43,0.63-0.43,1.04v2.58c0,0.41,0.14,0.76,0.43,1.05s0.64,0.43,1.06,0.43h16.76   c0.41,0,0.76,0.15,1.06,0.44c0.29,0.29,0.43,0.64,0.43,1.06v8.69c0,0.42-0.15,0.77-0.43,1.06c-0.29,0.29-0.64,0.44-1.06,0.44   h-16.76c-0.41,0-0.76,0.15-1.06,0.43c-0.29,0.29-0.43,0.64-0.43,1.06v13.72c0,0.41-0.15,0.76-0.43,1.06   c-0.29,0.29-0.64,0.43-1.05,0.43h-9.33c-0.41,0-0.76-0.15-1.05-0.43c-0.29-0.29-0.43-0.64-0.43-1.06v-42.47   c0-0.41,0.14-0.77,0.43-1.06c0.29-0.29,0.64-0.44,1.05-0.44h31.55c0.41,0,0.76,0.15,1.06,0.44c0.29,0.29,0.43,0.64,0.43,1.06   V483.31z M1681.4,517.22c0,0.41-0.15,0.76-0.43,1.06c-0.29,0.29-0.64,0.43-1.05,0.43h-9.33c-0.45,0-0.81-0.15-1.08-0.43   c-0.27-0.29-0.4-0.64-0.4-1.06v-42.41c0-0.41,0.13-0.76,0.4-1.06c0.27-0.29,0.63-0.43,1.08-0.43h9.33c0.41,0,0.76,0.15,1.05,0.43   c0.29,0.29,0.43,0.64,0.43,1.06V517.22z M1722.15,511.6c-0.85,1.76-2,3.17-3.45,4.22c-1.45,1.06-3.12,1.8-5,2.23   c-1.88,0.44-3.86,0.65-5.93,0.65h-19.68c-0.42,0-0.77-0.15-1.06-0.43c-0.29-0.29-0.44-0.64-0.44-1.06v-42.47   c0-0.41,0.15-0.77,0.44-1.06c0.29-0.29,0.64-0.44,1.06-0.44h18.75c1.99,0,3.89,0.22,5.71,0.65c1.82,0.43,3.42,1.15,4.81,2.14   c1.39,0.99,2.5,2.29,3.35,3.88s1.27,3.55,1.27,5.87c0,1.86-0.47,3.47-1.4,4.84c-0.93,1.37-1.93,2.44-3.01,3.23   c-0.75,0.54-0.71,1.01,0.12,1.43c0.66,0.37,1.33,0.83,1.99,1.36c0.66,0.54,1.27,1.2,1.83,1.99c0.56,0.79,1.01,1.7,1.37,2.73   c0.35,1.04,0.53,2.22,0.53,3.54C1723.43,507.61,1723,509.84,1722.15,511.6z M1813.85,518.08c-0.23,0.42-0.67,0.62-1.33,0.62   h-10.62c-0.46,0-0.88-0.14-1.27-0.4c-0.39-0.27-0.69-0.59-0.9-0.96l-1.68-3.72c-0.21-0.37-0.51-0.69-0.9-0.96   c-0.39-0.27-0.8-0.41-1.21-0.41h-13.1c-0.46,0-0.88,0.14-1.27,0.41c-0.4,0.27-0.68,0.59-0.84,0.96l-1.74,3.72   c-0.17,0.37-0.45,0.69-0.84,0.96c-0.39,0.27-0.8,0.4-1.21,0.4h-10.62h-0.06h-11.48c-0.41,0-0.86-0.11-1.33-0.34   c-0.48-0.23-0.84-0.51-1.09-0.84c-1.32-1.74-2.63-3.5-3.92-5.28c-1.3-1.78-2.58-3.58-3.86-5.4c-0.25-0.33-0.6-0.61-1.05-0.84   c-0.45-0.23-0.88-0.34-1.3-0.34h-1.36c-0.41,0-0.76,0.15-1.05,0.43c-0.29,0.29-0.43,0.64-0.43,1.06v10.06   c0,0.41-0.15,0.76-0.44,1.06c-0.29,0.29-0.64,0.43-1.06,0.43h-9.3c-0.42,0-0.77-0.15-1.06-0.43c-0.29-0.29-0.44-0.64-0.44-1.06   v-42.47c0-0.41,0.15-0.77,0.44-1.06c0.29-0.29,0.64-0.44,1.06-0.44h19.31c2.4,0,4.61,0.4,6.64,1.21c2.03,0.81,3.76,1.93,5.18,3.38   c1.43,1.45,2.55,3.17,3.35,5.15c0.81,1.99,1.21,4.18,1.21,6.58c0,1.33-0.16,2.64-0.46,3.94c-0.31,1.3-0.76,2.53-1.34,3.69   c-0.58,1.16-1.26,2.2-2.05,3.14c-0.79,0.93-1.67,1.71-2.67,2.33c-0.33,0.25-0.55,0.55-0.65,0.9c-0.1,0.35-0.03,0.69,0.22,1.02   c1.57,2.07,3.23,4.2,4.97,6.39c1.2,1.51,2.28,2.91,3.3,4.24l17.37-40.56c0.17-0.37,0.45-0.69,0.84-0.96s0.82-0.4,1.27-0.4h8.69   c0.41,0,0.82,0.13,1.21,0.4c0.39,0.27,0.67,0.59,0.84,0.96l18.13,42.22C1814.11,517.28,1814.08,517.67,1813.85,518.08z"></path>		<path class="st0" d="M1751.03,486.52c-0.35-0.52-0.82-0.95-1.42-1.31c-0.6-0.35-1.33-0.53-2.19-0.53h-6.55   c-0.41,0-0.76,0.15-1.05,0.44c-0.29,0.29-0.43,0.64-0.43,1.06v6.58c0,0.42,0.15,0.77,0.43,1.06c0.29,0.29,0.64,0.44,1.05,0.44   h6.55c0.49,0,1.01-0.09,1.54-0.28c0.54-0.19,1.03-0.47,1.48-0.87c0.45-0.39,0.82-0.88,1.11-1.46c0.29-0.58,0.43-1.26,0.43-2.05   c0-0.41-0.07-0.9-0.22-1.46C1751.62,487.57,1751.38,487.03,1751.03,486.52z"></path>		<path class="st0" d="M1555.52,486.89c-1.01-0.81-2.13-1.36-3.35-1.65c-1.22-0.29-2.41-0.43-3.57-0.43h-4.66   c-0.41,0-0.76,0.15-1.06,0.43c-0.29,0.29-0.43,0.64-0.43,1.06v19.49c0,0.42,0.15,0.77,0.43,1.06c0.29,0.29,0.64,0.44,1.06,0.44   h4.66c1.16,0,2.36-0.15,3.6-0.44c1.24-0.29,2.36-0.84,3.35-1.64c0.99-0.81,1.81-1.95,2.45-3.41c0.64-1.47,0.96-3.39,0.96-5.74   c0-2.36-0.32-4.27-0.96-5.74C1557.36,488.83,1556.53,487.69,1555.52,486.89z"></path>	</g></g></svg>